<?xml version="1.0" encoding="utf-8"?>
<!-- Generator: Adobe Illustrator 27.5.0, SVG Export Plug-In . SVG Version: 6.00 Build 0)  -->
<svg version="1.1" xmlns="http://www.w3.org/2000/svg" xmlns:xlink="http://www.w3.org/1999/xlink" x="0px" y="0px"
	 viewBox="0 0 500 500" style="enable-background:new 0 0 500 500;" xml:space="preserve">
<g id="BACKGROUND">
	<g>
		<g>
			<g>
				<rect y="-0.005" style="fill:none;" width="500" height="500"/>
			</g>
		</g>
	</g>
</g>
<g id="OBJECT">
	<g>
		<g>
			<path style="fill:#EDE8E6;" d="M437.486,403.092c0,0,70.572-87.07,33.492-153.092c-37.079-66.022-88.162,0-168.924-28.044
				C253.89,205.232,234.638,53.434,112.372,96.984C-28.611,147.201,18.165,362.293,44.45,403.092H437.486z"/>
			
				<line style="fill:none;stroke:#373131;stroke-width:0.8348;stroke-linecap:round;stroke-miterlimit:10;" x1="9.458" y1="403.092" x2="490.542" y2="403.092"/>
		</g>
		<g>
			<path style="fill:#FFFFFF;" d="M500,331.435v13.17h-70.14c15.69-9.74,42.51-19.78,47.72-19.03c12.43,1.78,4.59,12.31,4.31,12.68
				C482.13,338.155,490.21,334.755,500,331.435z"/>
			<path style="fill:#FFFFFF;" d="M78.3,159.825H0v-19.08c6.42-2.13,11.44-3.3,13.51-3c14.69,2.1,4.99,14.72,4.99,14.72
				s42.9-18.13,57.03-14.85C89.65,140.905,78.3,159.825,78.3,159.825z"/>
			<path style="fill:#FFFFFF;" d="M78.163,47.381c0,0,21.761-10.979,29.237-9.98c7.476,0.998,3.617,6.923,3.617,6.923
				s26.768-12.876,36.697-10.916c8.425,1.663,5.187,9.513,5.187,9.513s15.879-12.175,26.543-9.708
				c7.618,1.762-4.176,14.168-4.176,14.168H78.163z"/>
			<path style="fill:#FFFFFF;" d="M377.999,281.254c0,0,33.258-15.276,42.899-13.948c9.641,1.328,3.274,9.299,3.274,9.299
				s28.156-11.455,37.425-9.381c9.268,2.074-9.126,14.03-9.126,14.03H377.999z"/>
		</g>
		<g>
			<path style="fill:#FDAD5D;" d="M71.521,108.507c0,0,7.453-8.251,7.305-22.477c0,0,3.998,17.173,11.067,18.892
				c0,0-7.744,6.292-6.343,22.451C83.551,127.373,78.849,112.982,71.521,108.507z"/>
			<path style="fill:#FDAD5D;" d="M424.17,148.688c0,0,4.306-3.519,5.302-10.563c0,0,0.685,8.79,4.05,10.172
				c0,0-4.302,2.528-4.824,10.622C428.699,158.92,427.457,151.452,424.17,148.688z"/>
			<path style="fill:#FDAD5D;" d="M460.551,196.865c0,0,5.646-4.614,6.953-13.85c0,0,0.898,11.527,5.311,13.338
				c0,0-5.641,3.315-6.326,13.929C466.489,210.282,464.86,200.49,460.551,196.865z"/>
			<path style="fill:none;stroke:#373131;stroke-width:0.75;stroke-linecap:round;stroke-linejoin:round;stroke-miterlimit:10;" d="
				M25.913,244.527c0,0,3.847-3.144,4.737-9.437c0,0,0.612,7.854,3.619,9.088c0,0-3.843,2.259-4.31,9.49
				C29.959,253.669,28.85,246.997,25.913,244.527z"/>
			<path style="fill:none;stroke:#373131;stroke-width:0.75;stroke-linecap:round;stroke-linejoin:round;stroke-miterlimit:10;" d="
				M427.158,313.209c0,0,3.847-3.144,4.737-9.437c0,0,0.612,7.854,3.619,9.088c0,0-3.844,2.259-4.31,9.49
				C431.204,322.35,430.094,315.678,427.158,313.209z"/>
			<path style="fill:none;stroke:#373131;stroke-width:0.75;stroke-linecap:round;stroke-linejoin:round;stroke-miterlimit:10;" d="
				M459.069,89.941c0,0,4.938-4.036,6.082-12.115c0,0,0.785,10.083,4.646,11.667c0,0-4.934,2.9-5.534,12.184
				C464.263,101.677,462.839,93.112,459.069,89.941z"/>
			<path style="fill:none;stroke:#373131;stroke-width:0.75;stroke-linecap:round;stroke-linejoin:round;stroke-miterlimit:10;" d="
				M23.455,41.409c0,0,6.355-4.989,6.562-13.288c0,0,2.91,9.931,8.717,10.771c0,0-6.551,3.852-5.765,13.251
				C32.969,52.143,29.413,43.853,23.455,41.409z"/>
		</g>
	</g>
	<g>
		<path style="fill:#FBC8B3;" d="M144.891,85.511c0,0-22.524-3.937-29.087,1.61c-6.563,5.547-1.951,19.721-7.569,26.864
			c-5.618,7.142,6.905,10.54,6.905,10.54s2.664,12.419,7.106,18.335l55.662-11.579c0,0,4.138-19.907,1.714-23.385
			c-2.424-3.478-6.936-8.089-5.967-13.481c0.969-5.392-10.788-16.172-17.524-16.172C149.898,78.243,144.891,85.511,144.891,85.511z"
			/>
		<g>
			<polygon style="fill:#373131;" points="81.79,402.872 186.542,435.702 464.92,435.702 373.302,402.872 			"/>
			<path style="fill:#FFFFFF;" d="M95.004,345.752c0,0,10.959,31.704,4.231,57.121l88.387,26.519l79.166,2.518v-86.158H95.004z"/>
			
				<line style="fill:none;stroke:#373131;stroke-width:0.7887;stroke-linecap:round;stroke-miterlimit:10;" x1="101.259" y1="389.635" x2="199.355" y2="416.441"/>
			
				<line style="fill:none;stroke:#373131;stroke-width:0.7887;stroke-linecap:round;stroke-miterlimit:10;" x1="100.072" y1="367.5" x2="199.355" y2="394.631"/>
			<path style="fill:none;stroke:#373131;stroke-width:0.7887;stroke-linecap:round;stroke-miterlimit:10;" d="M95.004,345.752
				c0,0,10.959,31.704,4.231,57.121l88.387,26.519l79.166,2.518v-86.158H95.004z"/>
			<path style="fill:#35795E;" d="M186.542,435.702c0,0,7.137-34.668,0-59.305L81.79,343.567h293.766l93.528,32.83
				c0,0,9.824,32.829,0,59.305H186.542z"/>
			<polygon style="fill:#F2ECE9;" points="299.177,349.453 332.43,349.453 375.475,367.5 336.421,367.5 			"/>
			<g>
				<path style="fill:none;stroke:#373131;stroke-width:0.7887;stroke-linecap:round;stroke-miterlimit:10;" d="M230.961,376.397
					c0,0,8.535,25.849,0,59.305"/>
				<path style="fill:none;stroke:#373131;stroke-width:0.7887;stroke-linecap:round;stroke-miterlimit:10;" d="M329.904,376.397
					c0,0,8.535,25.849,0,59.305"/>
				<path style="fill:none;stroke:#373131;stroke-width:0.7887;stroke-linecap:round;stroke-miterlimit:10;" d="M428.847,376.397
					c0,0,8.535,25.849,0,59.305"/>
			</g>
			
				<line style="fill:none;stroke:#FFFFFF;stroke-width:0.7887;stroke-linecap:round;stroke-miterlimit:10;" x1="186.542" y1="376.397" x2="469.084" y2="376.397"/>
		</g>
		
			<line style="fill:none;stroke:#373131;stroke-width:0.7887;stroke-linecap:round;stroke-miterlimit:10;" x1="164.758" y1="180.249" x2="170.067" y2="198.346"/>
		<g>
			<g>
				<path style="fill:#FDAD5D;" d="M277.624,316.9l-45.116-153.964l-52.269,1.228l-44.698,9.489c0,0-52.549,10.723-73.018,41.17
					c-10.281,15.294-35.788,87.768-35.788,87.768l86.602,22.536l4.58-22.542c0,0,5.698,4.93,23.821,47.5L277.624,316.9z"/>
				<path style="fill:none;stroke:#373131;stroke-width:0.7887;stroke-linecap:round;stroke-miterlimit:10;" d="M135.541,173.654
					c0,0,10.639,22.929,14.352,24.593c3.714,1.664,14.859-17.999,14.859-17.999s16.193,7.18,22.466,5.1
					c4.343-1.44-6.979-21.184-6.979-21.184"/>
				<path style="fill:#373131;" d="M113.338,325.128c1.039-7.684-83.708-30.871-86.602-22.536
					C21.951,316.373,111.012,342.322,113.338,325.128z"/>
				<path style="fill:none;stroke:#373131;stroke-width:0.7887;stroke-linecap:round;stroke-miterlimit:10;" d="M62.523,214.824
					c0,0,21.855-8.083,35.462,3.895c13.608,11.978,19.591,22.637,19.932,83.867"/>
				<path style="fill:none;stroke:#373131;stroke-width:0.7887;stroke-linecap:round;stroke-miterlimit:10;" d="M76.159,244.962
					c14.062,5.516,26.37,15.411,34.777,27.96"/>
				<path style="fill:none;stroke:#373131;stroke-width:0.7887;stroke-linecap:round;stroke-miterlimit:10;" d="M87.164,266.844
					c2.802,0.828,5.604,1.655,8.406,2.483"/>
				<path style="fill:none;stroke:#FFFFFF;stroke-width:0.7887;stroke-linecap:round;stroke-miterlimit:10;" d="M30.9,290.98
					c0,0,48.528-5.448,80.039,23.607"/>
			</g>
			<g>
				<path style="fill:#E07963;" d="M180.246,164.167c-14.066,32.104-44.699,9.486-44.699,9.486
					c6.777-10.328-1.029-30.613-1.029-30.613l14.298-3.914l16.055-4.396C168.796,152.802,180.246,164.167,180.246,164.167z"/>
				<path style="fill:#373131;" d="M135.547,173.652c6.777-10.328-1.029-30.613-1.029-30.613l14.298-3.914
					C168.935,172.045,135.547,173.652,135.547,173.652z"/>
				<g>
					<g>
						<g>
							
								<path style="fill:none;stroke:#000101;stroke-width:1.0516;stroke-linecap:round;stroke-linejoin:round;stroke-miterlimit:10;" d="
								M167.706,132.877"/>
						</g>
						<g>
							<path style="fill:#E07963;" d="M126.181,137.585c-7.199-21.156-4.576-29.936,15.14-35.778
								c20.782-6.158,25.564,3.873,28.366,26.545c1.89,15.291,0.308,29.088-14.03,32.14
								C141.109,163.588,131.382,152.867,126.181,137.585z"/>
							<path style="fill:#FBC8B3;" d="M160.191,117.791c0.073-0.914-2.011-1.909-2.564-1.876c-0.554,0.032-4.213,1.169-4.806,1.719
								c-0.592,0.55-0.679,1.715-0.679,1.715C152.266,119.78,160.145,118.372,160.191,117.791z"/>
							<path style="fill:#FBC8B3;" d="M132.801,126.299c-0.548-0.736,0.691-2.685,1.177-2.951c0.486-0.266,4.191-1.247,4.985-1.095
								c0.794,0.152,1.487,1.093,1.487,1.093C140.573,123.776,133.149,126.766,132.801,126.299z"/>
							<path style="fill:#FFFFFF;" d="M146.875,146.455c0,0,10.783-3.12,13.145-4.576c0,0,3.872,11.44-2.811,13.104
								C150.526,156.647,146.875,146.455,146.875,146.455z"/>
							<path style="fill:#FBC8B3;" d="M144.891,85.511c3.408,0.431,13.125,17.837,2.341,30.922
								c-2.685,3.258-15.028,2.538-17.165,5.399c-2.362,3.163,7.97,10.029-3.049,18.068c0,0-10.001-8.827-9.703-19.966
								C117.648,107.512,124.8,82.97,144.891,85.511z"/>
							<g>
								<g>
									<path style="fill:#373131;" d="M158.605,125.107c-0.394-1.597-1.487-2.702-2.441-2.466
										c-0.954,0.236-1.407,1.721-1.013,3.319c0.394,1.597,1.487,2.702,2.441,2.466
										C158.546,128.19,158.999,126.704,158.605,125.107z"/>
								</g>
							</g>
							<g>
								<g>
									<path style="fill:#373131;" d="M141.598,128.719c-0.37-1.499-1.395-2.535-2.29-2.314c-0.895,0.221-1.32,1.615-0.951,3.113
										c0.37,1.499,1.395,2.535,2.29,2.314C141.543,131.612,141.968,130.218,141.598,128.719z"/>
								</g>
							</g>
							<g>
								<path style="fill:none;stroke:#373131;stroke-width:0.7887;stroke-linecap:round;stroke-miterlimit:10;" d="
									M147.048,122.577c1.096,2.998,2.409,5.917,3.924,8.727c0.36,0.667,0.755,1.354,1.39,1.768
									c0.856,0.557,2.093,0.586,2.653,1.441c0.334,0.51,0.309,1.196,0.06,1.753c-0.249,0.557-0.692,1.004-1.162,1.392
									c-1.373,1.133-3.069,1.87-4.834,2.103"/>
							</g>
						</g>
						<g>
							<g>
								<path style="fill:#E07963;" d="M118.797,145.446c-4.832-3.727-6.835-9.23-4.473-12.292
									c2.362-3.062,8.193-2.523,13.025,1.203c4.832,3.726,6.835,9.23,4.473,12.292
									C129.46,149.711,123.629,149.172,118.797,145.446z"/>
							</g>
						</g>
						<g>
							<g>
								<path style="fill:#E07963;" d="M179.013,132.667c2.902-5.368,2.497-11.21-0.905-13.049
									c-3.402-1.839-8.512,1.022-11.413,6.39c-2.902,5.368-2.497,11.21,0.905,13.049
									C171.001,140.895,176.111,138.035,179.013,132.667z"/>
							</g>
						</g>
					</g>
				</g>
			</g>
		</g>
		<g>
			<path style="fill:#373131;" d="M397.533,359.977l-202.927-2.948l4.691-292.256l202.927,2.948
				C402.223,67.721,391.718,254.795,397.533,359.977z"/>
			<path style="fill:#F2ECE9;" d="M387.331,350.084l-189.399-2.751l4.378-272.772l189.399,2.751
				C391.709,77.313,384.498,241.473,387.331,350.084z"/>
			<path style="fill:none;stroke:#373131;stroke-width:0.8086;stroke-linecap:round;stroke-miterlimit:10;" d="M387.331,350.084
				l-189.399-2.751l4.378-272.772l189.399,2.751C391.709,77.313,384.498,241.473,387.331,350.084z"/>
			<path style="fill:none;stroke:#373131;stroke-width:0.8086;stroke-linecap:round;stroke-miterlimit:10;" d="M385.512,77.223
				c0,0-7.211,164.16-4.378,272.772"/>
			<path style="fill:none;stroke:#373131;stroke-width:0.8086;stroke-linecap:round;stroke-miterlimit:10;" d="M375.431,77.076
				c0,0-7.211,164.16-4.378,272.772"/>
			<path style="fill:#A15743;" d="M364.803,359.501l-202.927-2.948l4.691-292.256l202.927,2.948
				C369.493,67.246,358.989,254.32,364.803,359.501z"/>
			<g>
				<g>
					<rect x="235.367" y="266.844" style="fill:#F2ECE9;" width="83.599" height="7.27"/>
					<rect x="255.62" y="283.305" style="fill:#F2ECE9;" width="43.094" height="7.27"/>
				</g>
			</g>
			
				<line style="fill:none;stroke:#FFFFFF;stroke-width:0.8086;stroke-linecap:round;stroke-miterlimit:10;" x1="183.27" y1="64.671" x2="178.579" y2="356.926"/>
		</g>
		<path style="fill:none;stroke:#373131;stroke-width:0.7887;stroke-linecap:round;stroke-miterlimit:10;" d="M151.92,100.031
			c0,0,0.479-3.615-1.643-7.722c-2.122-4.107,2.597-2.632,3.728,0"/>
		<g>
			<g>
				<path style="fill:#E07963;" d="M396.142,267.125c0,0,13.987-9.076,19.353-22.49c5.366-13.415,8.049-25.04,2.683-34.878
					c-5.366-9.837-12.754-31.08-21.697-37.34c-8.943-6.26-8.278,10.571-1.912,21.632c0,0-13.036-4.992-15.74-0.389
					c-2.231,3.797,1.904,6.763,1.904,6.763s-3.997-0.828-5.16,2.084c-1.173,2.937-1.187,3.913,2.496,8.32
					c0,0-4.618-2.313-6.125,1.451c-2.195,5.483,14.382,20.271,24.539,27.114L396.142,267.125z"/>
				<path style="fill:none;stroke:#373131;stroke-width:0.7887;stroke-linecap:round;stroke-miterlimit:10;" d="M394.569,194.049
					c0,0,8.379,2.277,14.144,5.2"/>
			</g>
			<g>
				<path style="fill:#E07963;" d="M226.965,311.397c6.28-2.138,14.347-4.009,22.297-5.774c5.857-1.3,11.912-1.736,14.866,1.554
					c2.954,3.29-2.953,8.023-14.502,11.236c0,0,11.548,2.793,17.829-0.637c6.281-3.431,9.322-16.551,14.441-13.837
					c5.119,2.714,2.668,9.122,2.668,9.122s4.33-1.152,4.343,2.201c0.013,3.354-2.915,20.639-10.545,28.286
					c-7.629,7.647-7.078,7.965-29.831,13.377c-23.301,5.543-141.747,49.123-193.512,26.779
					c-40.041-17.284-9.812-81.657-9.812-81.657s65.628,7.45,68.124,23.077C113.333,325.125,188.03,324.655,226.965,311.397z"/>
				<path style="fill:none;stroke:#373131;stroke-width:0.7887;stroke-linecap:round;stroke-miterlimit:10;" d="M113.333,325.125
					c0,0-27.113-1.664-35.433,0"/>
				<path style="fill:none;stroke:#373131;stroke-width:0.7887;stroke-linecap:round;stroke-miterlimit:10;" d="M284.565,313.061
					c0,0-1.856,9.707-3.243,14.144c-1.387,4.437-3.702,6.101-3.702,6.101"/>
			</g>
		</g>
	</g>
	<g>
		<g>
			
				<text transform="matrix(1.0454 0 0 1 202.1556 137.454)" style="fill:#FDAD5D; font-family:'LoraItalic-BoldItalic'; font-size:38.446px; letter-spacing:3.826;">WORLD</text>
		</g>
		<text transform="matrix(1.0454 0 0 1 214.2332 180.8319)"><tspan x="0" y="0" style="fill:#FFFFFF; font-family:'Poppins-Regular'; font-size:33.3609px; letter-spacing:5.739;">BOOK</tspan><tspan x="16.997" y="40.033" style="fill:#FFFFFF; font-family:'Poppins-Regular'; font-size:33.3609px; letter-spacing:5.739;">DAY</tspan></text>
	</g>
</g>
</svg>
