<?xml version="1.0" encoding="utf-8"?>
<!-- Generator: Adobe Illustrator 27.5.0, SVG Export Plug-In . SVG Version: 6.00 Build 0)  -->
<svg version="1.1" id="Capa_1" xmlns="http://www.w3.org/2000/svg" xmlns:xlink="http://www.w3.org/1999/xlink" x="0px" y="0px"
	 viewBox="0 0 2122 2122" style="enable-background:new 0 0 2122 2122;" xml:space="preserve">
<g>
	<g>
		<g>
			<rect x="732.276" y="1375.315" style="fill:none;" width="450.737" height="334.788"/>
			<path style="fill:#EE7423;" d="M1408.452,1264.681h-225.44c-30.555,0-55.322,24.779-55.322,55.327
				c0,30.538,24.767,55.308,55.322,55.308v334.788h280.75v-390.096C1463.762,1289.46,1439,1264.681,1408.452,1264.681z"/>
			<path style="fill:#FBB05D;" d="M1127.69,1320.007c0-30.548,24.767-55.327,55.322-55.327H732.276
				c-30.552,0-55.325,24.779-55.325,55.327c0,30.538,24.772,55.308,55.325,55.308h450.737
				C1152.457,1375.315,1127.69,1350.546,1127.69,1320.007z"/>
			<g>
				<g>
					<rect x="751.148" y="1405.025" style="fill:#FBB05D;" width="408.542" height="133.105"/>
					<rect x="751.148" y="1554.12" style="fill:#FBB05D;" width="408.542" height="133.105"/>
				</g>
				<path style="fill:#F89B59;" d="M1031.023,1443.651c0,6.597-5.325,11.937-11.929,11.937H891.75
					c-6.611,0-11.939-5.34-11.939-11.937l0,0c0-6.596,5.327-11.937,11.939-11.937h127.344
					C1025.698,1431.714,1031.023,1437.054,1031.023,1443.651L1031.023,1443.651z"/>
				<path style="fill:#F89B59;" d="M1031.023,1594.879c0,6.578-5.325,11.927-11.929,11.927H891.75
					c-6.611,0-11.939-5.35-11.939-11.927l0,0c0-6.606,5.327-11.937,11.939-11.937h127.344
					C1025.698,1582.943,1031.023,1588.273,1031.023,1594.879L1031.023,1594.879z"/>
			</g>
			<rect x="732.276" y="1710.104" style="fill:#F89B59;" width="30.287" height="152.077"/>
			<rect x="762.563" y="1710.104" style="fill:#EE7423;" width="30.309" height="152.077"/>
			<rect x="1183.012" y="1710.104" style="fill:#EE7423;" width="30.285" height="152.077"/>
			<rect x="1152.711" y="1710.104" style="fill:#F89B59;" width="30.302" height="152.077"/>
			<rect x="982.741" y="1710.104" style="fill:#F89B59;" width="30.29" height="152.077"/>
			<rect x="1013.031" y="1710.104" style="fill:#EE7423;" width="30.304" height="152.077"/>
			<rect x="1433.475" y="1710.104" style="fill:#EE7423;" width="30.287" height="152.077"/>
			<rect x="1403.176" y="1710.104" style="fill:#F89B59;" width="30.299" height="152.077"/>
		</g>
		<g>
			<g>
				<path style="fill:#65BD56;" d="M1459.616,1530.753c0,0-9.842,4.862-22.619,4.862c-12.789,0-22.631-4.862-22.631-4.862v-156.666
					c0,0,5.423-2.68,22.631-2.68c17.189,0,22.619,2.68,22.619,2.68V1530.753z"/>
				<path style="fill:#86C555;" d="M1448.028,1406.019c0,6.1-4.948,11.05-11.03,11.05c-6.115,0-11.06-4.95-11.06-11.05
					c0-6.09,4.945-11.031,11.06-11.031C1443.08,1394.989,1448.028,1399.929,1448.028,1406.019z"/>
				<path style="fill:#86C555;" d="M1436.998,1378.755c-17.208,0-22.631,2.66-22.631,2.66v10.699c0,0,5.423-2.679,22.631-2.679
					c17.189,0,22.619,2.679,22.619,2.679v-10.699C1459.616,1381.415,1454.186,1378.755,1436.998,1378.755z"/>
				<path style="fill:#86C555;" d="M1436.998,1518.943c-17.208,0-22.631-2.67-22.631-2.67v-10.699c0,0,5.423,2.68,22.631,2.68
					c17.189,0,22.619-2.68,22.619-2.68v10.699C1459.616,1516.274,1454.186,1518.943,1436.998,1518.943z"/>
				<path style="fill:#86C555;" d="M1436.998,1528.717c-17.208,0-22.631-2.67-22.631-2.67v-5.35c0,0,5.423,2.689,22.631,2.689
					c17.189,0,22.619-2.689,22.619-2.689v5.35C1459.616,1526.047,1454.186,1528.717,1436.998,1528.717z"/>
			</g>
			<g>
				<path style="fill:#8E9295;" d="M1648.745,1529.906c0,0-11.598,5.71-26.648,5.71c-15.059,0-26.675-5.71-26.675-5.71v-184.651
					c0,0,6.409-3.157,26.675-3.157c20.248,0,26.648,3.157,26.648,3.157V1529.906z"/>
				<path style="fill:#AEB0AF;" d="M1648.745,1367.54c0,0-1.802-0.897-6.568-1.735c-2.887-4.823-10.796-8.282-20.08-8.282
					c-9.311,0-17.208,3.459-20.097,8.282c-4.77,0.838-6.578,1.735-6.578,1.735v12.609c0,0,2.767-1.364,10.422-2.309
					c3.907,2.67,9.737,4.385,16.253,4.385c6.514,0,12.314-1.715,16.222-4.385c7.671,0.945,10.426,2.309,10.426,2.309V1367.54z"/>
				<path style="fill:#AEB0AF;" d="M1622.097,1515.972c-20.265,0-26.675-3.157-26.675-3.157v-12.609c0,0,6.409,3.147,26.675,3.147
					c20.248,0,26.648-3.147,26.648-3.147v12.609C1648.745,1512.815,1642.345,1515.972,1622.097,1515.972z"/>
				<path style="fill:#AEB0AF;" d="M1622.097,1527.489c-20.265,0-26.675-3.147-26.675-3.147v-6.295c0,0,6.409,3.147,26.675,3.147
					c20.248,0,26.648-3.147,26.648-3.147v6.295C1648.745,1524.342,1642.345,1527.489,1622.097,1527.489z"/>
			</g>
			<g>
				<path style="fill:#213364;" d="M1504.892,1530.753c0,0-9.846,4.862-22.636,4.862c-12.782,0-22.64-4.862-22.64-4.862v-229.844
					c0,0,5.444-2.67,22.64-2.67c17.201,0,22.636,2.67,22.636,2.67V1530.753z"/>
				<path style="fill:#354E85;" d="M1482.256,1305.567c-17.195,0-22.64,2.69-22.64,2.69v10.699c0,0,5.444-2.68,22.64-2.68
					c17.201,0,22.636,2.68,22.636,2.68v-10.699C1504.892,1308.256,1499.458,1305.567,1482.256,1305.567z"/>
				<path style="fill:#354E85;" d="M1482.256,1518.924c-17.195,0-22.64-2.67-22.64-2.67v-10.709c0,0,5.444,2.679,22.64,2.679
					c17.201,0,22.636-2.679,22.636-2.679v10.709C1504.892,1516.254,1499.458,1518.924,1482.256,1518.924z"/>
				<path style="fill:#354E85;" d="M1482.256,1528.717c-17.195,0-22.64-2.67-22.64-2.67v-5.35c0,0,5.444,2.67,22.64,2.67
					c17.201,0,22.636-2.67,22.636-2.67v5.35C1504.892,1526.047,1499.458,1528.717,1482.256,1528.717z"/>
			</g>
			<g>
				<path style="fill:#F68732;" d="M1595.342,1530.753c0,0-9.836,4.862-22.623,4.862c-12.765,0-22.628-4.862-22.628-4.862v-156.666
					c0,0,5.444-2.68,22.628-2.68c17.198,0,22.623,2.68,22.623,2.68V1530.753z"/>
				<path style="fill:#FBB57E;" d="M1572.719,1390.321c-17.184,0-22.628,2.67-22.628,2.67v10.699c0,0,5.444-2.67,22.628-2.67
					c17.198,0,22.623,2.67,22.623,2.67v-10.699C1595.342,1392.991,1589.917,1390.321,1572.719,1390.321z"/>
				<path style="fill:#FBB57E;" d="M1572.719,1431.071c-17.184,0-22.628,2.68-22.628,2.68v50.25c0,0,5.444,1.861,22.628,1.861
					c17.198,0,22.623-1.861,22.623-1.861v-50.25C1595.342,1433.751,1589.917,1431.071,1572.719,1431.071z"/>
				<path style="fill:#FBB57E;" d="M1572.719,1380.538c-17.184,0-22.628,2.68-22.628,2.68v5.35c0,0,5.444-2.68,22.628-2.68
					c17.198,0,22.623,2.68,22.623,2.68v-5.35C1595.342,1383.218,1589.917,1380.538,1572.719,1380.538z"/>
			</g>
			<g>
				<path style="fill:#0EABE2;" d="M1550.132,1530.753c0,0-9.849,4.862-22.628,4.862c-12.787,0-22.65-4.862-22.65-4.862v-209.129
					c0,0,5.444-2.67,22.65-2.67c17.198,0,22.628,2.67,22.628,2.67V1530.753z"/>
				<path style="fill:#46BEE8;" d="M1527.504,1326.273c-17.206,0-22.65,2.68-22.65,2.68v10.709c0,0,5.444-2.67,22.65-2.67
					c17.198,0,22.628,2.67,22.628,2.67v-10.709C1550.132,1328.953,1544.702,1326.273,1527.504,1326.273z"/>
			</g>
			<g>
				<path style="fill:#FDB933;" d="M1677.346,1587.708c0,0,6.095,12.414,6.095,28.521c0,16.136-6.095,28.531-6.095,28.531h-289.595
					c0,0-3.374-6.84-3.374-28.531c0-21.661,3.374-28.521,3.374-28.521H1677.346z"/>
				<path style="fill:#FFC95F;" d="M1393.624,1616.229c0,21.691,3.393,28.531,3.393,28.531h13.469c0,0-3.374-6.84-3.374-28.531
					c0-21.661,3.374-28.521,3.374-28.521h-13.469C1397.017,1587.708,1393.624,1594.568,1393.624,1616.229z"/>
				<path style="fill:#FFC95F;" d="M1662.433,1616.229c0,21.691-3.381,28.531-3.381,28.531h-13.478c0,0,3.381-6.84,3.381-28.531
					c0-21.661-3.381-28.521-3.381-28.521h13.478C1659.051,1587.708,1662.433,1594.568,1662.433,1616.229z"/>
				<path style="fill:#FFC95F;" d="M1674.752,1616.229c0,21.691-3.362,28.531-3.362,28.531h-6.741c0,0,3.374-6.84,3.374-28.531
					c0-21.661-3.374-28.521-3.374-28.521h6.741C1671.39,1587.708,1674.752,1594.568,1674.752,1616.229z"/>
			</g>
			<g>
				<path style="fill:#148CAF;" d="M1664.284,1530.724c0,0,6.117,12.404,6.117,28.531c0,16.107-6.117,28.511-6.117,28.511h-263.484
					c0,0-3.364-6.86-3.364-28.511c0-21.671,3.364-28.531,3.364-28.531H1664.284z"/>
				<path style="fill:#4FC6DF;" d="M1406.676,1559.255c0,21.651,3.369,28.511,3.369,28.511h13.486c0,0-3.364-6.86-3.364-28.511
					c0-21.671,3.364-28.531,3.364-28.531h-13.486C1410.045,1530.724,1406.676,1537.584,1406.676,1559.255z"/>
			</g>
			<g>
				<path style="fill:#F15545;" d="M1392.925,1700.477h248.611l0,0c13.885,0,25.147-11.254,25.147-25.14
					c0-13.876-11.262-25.13-25.147-25.13v0.009h-248.611c-1.501,0-2.723-1.228-2.723-2.728c0-1.5,1.223-2.728,2.723-2.728h248.611
					c16.904,0,30.582,13.69,30.582,30.577c0,16.896-13.678,30.596-30.582,30.596l0,0h-248.611c-1.501,0-2.723-1.228-2.723-2.738
					C1390.202,1701.695,1391.424,1700.477,1392.925,1700.477z"/>
				<g>
					<path style="fill:#D4CFCD;" d="M1394.294,1650.207h240.661c13.878,0,25.125,11.254,25.125,25.13
						c0,13.885-11.247,25.15-25.125,25.15h-240.661V1650.207z"/>
					<path style="fill:#BCB8B1;" d="M1394.294,1694.25h244.271c14.874,0,21.515-11.557,21.515-18.913
						c0-13.876-11.247-25.13-25.125-25.13h6.546c13.888,0,25.142,11.254,25.142,25.13c0,13.885-11.254,25.15-25.142,25.15h-247.206
						V1694.25z"/>
				</g>
				<g>
					<g>
						<g>
							<path style="fill:#9B9494;" d="M1626.699,1660.019c0,0-10.616,0.117-26.538,0.302c-15.92,0.068-37.149,0.166-58.377,0.253
								c-21.23-0.088-42.46-0.185-58.382-0.253c-15.922-0.18-26.535-0.302-26.535-0.302s10.614-0.122,26.535-0.302
								c15.922-0.068,37.152-0.166,58.382-0.254c21.228,0.088,42.457,0.185,58.377,0.254
								C1616.083,1659.902,1626.699,1660.019,1626.699,1660.019z"/>
						</g>
					</g>
					<g>
						<g>
							<path style="fill:#9B9494;" d="M1652.952,1675.337c0,0-8.825,0.097-22.063,0.244c-13.235,0.058-30.884,0.137-48.535,0.214
								c-17.647-0.078-35.298-0.156-48.535-0.214c-13.237-0.146-22.061-0.244-22.061-0.244s8.823-0.098,22.061-0.243
								c13.237-0.059,30.889-0.137,48.535-0.215c17.651,0.078,35.301,0.156,48.535,0.215
								C1644.126,1675.239,1652.952,1675.337,1652.952,1675.337z"/>
						</g>
					</g>
					<g>
						<g>
							<path style="fill:#9B9494;" d="M1553.567,1688.862c0,0-9.956,0.097-24.887,0.243c-14.931,0.059-34.84,0.137-54.75,0.215
								c-19.91-0.078-39.82-0.156-54.75-0.215c-14.93-0.146-24.887-0.243-24.887-0.243s9.956-0.097,24.887-0.243
								c14.93-0.058,34.84-0.137,54.75-0.215c19.91,0.078,39.819,0.156,54.75,0.215
								C1543.611,1688.764,1553.567,1688.862,1553.567,1688.862z"/>
						</g>
					</g>
					<g>
						<g>
							<path style="fill:#9B9494;" d="M1561.635,1680.901c0,0-10.458,0.097-26.146,0.244c-15.688,0.059-36.606,0.137-57.525,0.214
								c-20.918-0.078-41.837-0.156-57.525-0.214c-15.688-0.146-26.146-0.244-26.146-0.244s10.458-0.097,26.146-0.243
								c15.688-0.058,36.606-0.137,57.525-0.214c20.918,0.078,41.836,0.156,57.525,0.214
								C1551.177,1680.803,1561.635,1680.901,1561.635,1680.901z"/>
						</g>
					</g>
					<g>
						<g>
							<path style="fill:#9B9494;" d="M1561.635,1666.791c0,0-10.458,0.146-26.146,0.37c-15.688,0.088-36.606,0.204-57.525,0.322
								c-20.918-0.117-41.837-0.234-57.525-0.322c-15.688-0.224-26.146-0.37-26.146-0.37s10.458-0.146,26.146-0.37
								c15.688-0.088,36.606-0.205,57.525-0.322c20.918,0.117,41.836,0.234,57.525,0.322
								C1551.177,1666.645,1561.635,1666.791,1561.635,1666.791z"/>
						</g>
					</g>
					<g>
						<g>
							<path style="fill:#9B9494;" d="M1484.13,1655.098c0,0-5.615,0.098-14.036,0.244c-8.421,0.058-19.651,0.136-30.881,0.214
								c-11.23-0.078-22.46-0.156-30.881-0.214c-8.422-0.146-14.037-0.244-14.037-0.244s5.615-0.097,14.037-0.244
								c8.421-0.058,19.651-0.136,30.881-0.214c11.23,0.078,22.46,0.156,30.881,0.214
								C1478.515,1655.001,1484.13,1655.098,1484.13,1655.098z"/>
						</g>
					</g>
					<g>
						<g>
							<path style="fill:#9B9494;" d="M1629.444,1695.985c0,0-11.703,0.097-29.257,0.243c-17.554,0.058-40.959,0.136-64.365,0.214
								c-23.406-0.078-46.811-0.156-64.365-0.214c-17.554-0.146-29.257-0.243-29.257-0.243s11.703-0.098,29.257-0.244
								c17.554-0.058,40.959-0.136,64.365-0.214c23.405,0.078,46.811,0.156,64.365,0.214
								C1617.741,1695.887,1629.444,1695.985,1629.444,1695.985z"/>
						</g>
					</g>
					<g>
						<g>
							<path style="fill:#9B9494;" d="M1633.839,1669.987c0,0-6.175,0.156-15.439,0.39c-9.264,0.185-21.615,0.253-33.968,0.302
								c-12.353-0.049-24.703-0.117-33.968-0.302c-9.264-0.234-15.439-0.39-15.439-0.39s6.175-0.156,15.439-0.39
								c9.265-0.185,21.615-0.254,33.968-0.302c12.353,0.049,24.704,0.117,33.968,0.302
								C1627.663,1669.832,1633.839,1669.987,1633.839,1669.987z"/>
						</g>
					</g>
				</g>
			</g>
			<g>
				<path style="fill:#D4CFCD;" d="M1383.132,1715.619h268.921c10.411,0,18.847,8.487,18.847,18.982
					c0,10.475-8.436,18.962-18.847,18.962h-268.921V1715.619z"/>
				<path style="fill:#148CAF;" d="M1381.665,1753.563h275.364c10.38-0.107,18.792-8.565,18.792-18.962
					c0-10.407-8.412-18.884-18.792-18.982h-275.364c-2.665,0-4.84-2.173-4.84-4.843c0-2.67,2.176-4.843,4.84-4.843h277.678
					c14.643,1.277,26.141,13.71,26.141,28.667c0,14.948-11.498,27.381-26.141,28.657h-277.678c-2.665,0-4.84-2.173-4.84-4.843
					C1376.825,1755.735,1379.001,1753.563,1381.665,1753.563z"/>
				<g>
					<g>
						<g>
							<path style="fill:#9B9494;" d="M1629.339,1722.664c0,0-11.691,0.102-29.227,0.258c-17.537,0.058-40.921,0.141-64.302,0.219
								c-23.381-0.078-46.764-0.161-64.302-0.219c-17.537-0.156-29.228-0.258-29.228-0.258s11.691-0.102,29.228-0.258
								c17.537-0.058,40.921-0.141,64.302-0.219c23.381,0.078,46.764,0.161,64.302,0.219
								C1617.649,1722.562,1629.339,1722.664,1629.339,1722.664z"/>
						</g>
					</g>
					<g>
						<g>
							<path style="fill:#9B9494;" d="M1651.782,1734.601c0,0-9.162,0.088-22.906,0.209c-13.744,0.053-32.068,0.112-50.394,0.18
								c-18.326-0.063-36.65-0.127-50.394-0.175c-13.744-0.127-22.906-0.214-22.906-0.214s9.162-0.088,22.906-0.215
								c13.744-0.048,32.068-0.112,50.394-0.175c18.327,0.068,36.65,0.127,50.394,0.18
								C1642.621,1734.513,1651.782,1734.601,1651.782,1734.601z"/>
						</g>
					</g>
					<g>
						<g>
							<path style="fill:#9B9494;" d="M1559.671,1743.166c0,0-11.033,0.088-27.583,0.21c-16.551,0.053-38.618,0.112-60.686,0.18
								c-22.068-0.063-44.136-0.127-60.687-0.175c-16.551-0.127-27.583-0.214-27.583-0.214s11.033-0.088,27.583-0.215
								c16.55-0.049,38.618-0.112,60.687-0.175c22.068,0.068,44.136,0.126,60.686,0.18
								C1548.639,1743.078,1559.671,1743.166,1559.671,1743.166z"/>
						</g>
					</g>
					<g>
						<g>
							<path style="fill:#9B9494;" d="M1566.585,1738.069c0,0-45.863,0.195-91.727,0.39c-45.863-0.194-91.726-0.39-91.726-0.39
								s45.863-0.195,91.726-0.39C1520.722,1737.874,1566.585,1738.069,1566.585,1738.069z"/>
						</g>
					</g>
					<g>
						<g>
							<path style="fill:#9B9494;" d="M1566.585,1728.423c0,0-11.467,0.127-28.665,0.317c-17.198,0.073-40.131,0.175-63.062,0.273
								c-22.93-0.098-45.863-0.2-63.061-0.268c-17.198-0.195-28.665-0.322-28.665-0.322s11.466-0.127,28.665-0.321
								c17.199-0.068,40.131-0.171,63.061-0.268c22.93,0.098,45.863,0.2,63.062,0.273
								C1555.118,1728.296,1566.585,1728.423,1566.585,1728.423z"/>
						</g>
					</g>
					<g>
						<g>
							<path style="fill:#9B9494;" d="M1465.594,1718.455c0,0-5.155,0.087-12.884,0.209c-7.732,0.054-18.039,0.112-28.348,0.181
								c-10.307-0.063-20.614-0.127-28.345-0.176c-7.732-0.127-12.884-0.214-12.884-0.214s5.152-0.088,12.884-0.214
								c7.732-0.049,18.039-0.112,28.345-0.176c10.31,0.068,20.616,0.127,28.348,0.181
								C1460.44,1718.367,1465.594,1718.455,1465.594,1718.455z"/>
						</g>
					</g>
					<g>
						<g>
							<path style="fill:#9B9494;" d="M1631.69,1746.138c0,0-60.214,0.195-120.428,0.39c-60.214-0.195-120.428-0.39-120.428-0.39
								s60.214-0.195,120.428-0.39C1571.476,1745.943,1631.69,1746.138,1631.69,1746.138z"/>
						</g>
					</g>
					<g>
						<g>
							<path style="fill:#9B9494;" d="M1635.451,1731.18c0,0-6.899,0.127-17.249,0.317c-10.349,0.073-24.146,0.176-37.944,0.273
								c-13.797-0.097-27.596-0.2-37.944-0.268c-10.351-0.195-17.25-0.322-17.25-0.322s6.899-0.127,17.25-0.321
								c10.348-0.068,24.146-0.171,37.944-0.268c13.798,0.097,27.595,0.2,37.944,0.273
								C1628.553,1731.053,1635.451,1731.18,1635.451,1731.18z"/>
						</g>
					</g>
				</g>
				<path style="fill:#BCB8B1;" d="M1652.854,1748.301c13.832,0,18.046-9.773,18.046-13.7c0-10.494-8.436-18.982-18.847-18.982
					h4.919c10.399,0,18.85,8.487,18.85,18.982c0,10.475-8.451,18.962-18.85,18.962h-273.839v-5.262H1652.854z"/>
			</g>
			<g>
				<path style="fill:#D4CFCD;" d="M1356.102,1769.328h321.561c11.408,0,20.662,9.326,20.662,20.824
					c0,11.478-9.255,20.794-20.662,20.794h-321.561V1769.328z"/>
				<path style="fill:#662D91;" d="M1355.554,1810.907h327.588h0.015h0.017c11.335-0.127,20.538-9.432,20.538-20.755
					c0-11.343-9.203-20.648-20.538-20.775h-0.017h-0.015h-327.588c-1.691,0-3.062-1.364-3.062-3.06c0-1.695,1.371-3.06,3.062-3.06
					h329.826c6.633,0.604,12.774,3.654,17.325,8.624c4.594,5.008,7.128,11.498,7.128,18.271c0,6.743-2.534,13.232-7.128,18.26
					c-4.55,4.95-10.691,8.01-17.325,8.604h-329.826c-1.691,0-3.062-1.374-3.062-3.06
					C1352.492,1812.281,1353.863,1810.907,1355.554,1810.907z"/>
				<g>
					<g>
						<g>
							<path style="fill:#9B9494;" d="M1642.652,1777.056c0,0-8.226,0.112-20.562,0.282c-12.339,0.068-28.789,0.156-45.24,0.243
								c-16.451-0.088-32.901-0.175-45.24-0.243c-12.336-0.171-20.563-0.282-20.563-0.282s8.227-0.112,20.563-0.283
								c12.339-0.068,28.789-0.156,45.24-0.243c16.451,0.088,32.901,0.175,45.24,0.243
								C1634.426,1776.944,1642.652,1777.056,1642.652,1777.056z"/>
						</g>
					</g>
					<g>
						<g>
							<path style="fill:#9B9494;" d="M1677.368,1790.152c0,0-9.081,0.092-22.699,0.234c-13.622,0.049-31.78,0.122-49.943,0.195
								c-18.158-0.073-36.319-0.146-49.939-0.195c-13.622-0.141-22.701-0.234-22.701-0.234s9.08-0.093,22.701-0.234
								c13.62-0.049,31.78-0.122,49.939-0.195c18.163,0.073,36.321,0.146,49.943,0.195
								C1668.286,1790.059,1677.368,1790.152,1677.368,1790.152z"/>
						</g>
					</g>
					<g>
						<g>
							<path style="fill:#9B9494;" d="M1571.018,1799.535c0,0-13.432,0.093-33.58,0.234c-20.149,0.049-47.013,0.122-73.878,0.194
								c-26.865-0.073-53.729-0.146-73.877-0.194c-20.149-0.141-33.581-0.234-33.581-0.234s13.432-0.092,33.581-0.234
								c20.148-0.048,47.013-0.122,73.877-0.195c26.864,0.073,53.729,0.146,73.878,0.195
								C1557.586,1799.443,1571.018,1799.535,1571.018,1799.535z"/>
						</g>
					</g>
					<g>
						<g>
							<path style="fill:#9B9494;" d="M1627.712,1793.962c0,0-67.902,0.214-135.804,0.429
								c-67.904-0.215-135.806-0.429-135.806-0.429s67.902-0.214,135.806-0.429
								C1559.81,1793.748,1627.712,1793.962,1627.712,1793.962z"/>
						</g>
					</g>
					<g>
						<g>
							<path style="fill:#9B9494;" d="M1627.712,1783.39c0,0-16.974,0.136-42.44,0.351c-25.461,0.078-59.415,0.185-93.364,0.297
								c-33.953-0.112-67.904-0.219-93.368-0.297c-25.462-0.214-42.438-0.351-42.438-0.351s16.976-0.137,42.438-0.351
								c25.464-0.078,59.414-0.185,93.368-0.297c33.949,0.112,67.902,0.219,93.364,0.297
								C1610.738,1783.253,1627.712,1783.39,1627.712,1783.39z"/>
						</g>
					</g>
					<g>
						<g>
							<path style="fill:#9B9494;" d="M1536.621,1772.457c0,0-11.281,0.092-28.207,0.234c-16.923,0.048-39.488,0.122-62.053,0.195
								c-22.565-0.073-45.13-0.146-62.053-0.195c-16.926-0.142-28.207-0.234-28.207-0.234s11.281-0.093,28.207-0.234
								c16.923-0.049,39.488-0.122,62.053-0.195c22.565,0.073,45.13,0.146,62.053,0.195
								C1525.34,1772.364,1536.621,1772.457,1536.621,1772.457z"/>
						</g>
					</g>
					<g>
						<g>
							<path style="fill:#9B9494;" d="M1645.229,1802.79c0,0-8.56,0.092-21.4,0.234c-12.838,0.049-29.958,0.122-47.079,0.195
								c-17.121-0.073-34.241-0.146-47.079-0.195c-12.84-0.141-21.4-0.234-21.4-0.234s8.56-0.093,21.4-0.234
								c12.838-0.049,29.958-0.122,47.079-0.195c17.12,0.073,34.24,0.146,47.079,0.195
								C1636.669,1802.697,1645.229,1802.79,1645.229,1802.79z"/>
						</g>
					</g>
					<g>
						<g>
							<path style="fill:#9B9494;" d="M1649.346,1786.4c0,0-5.966,0.204-14.916,0.351c-8.95,0.078-20.882,0.185-32.814,0.297
								c-11.934-0.112-23.865-0.22-32.816-0.297c-8.95-0.146-14.916-0.351-14.916-0.351s5.966-0.205,14.916-0.351
								c8.95-0.078,20.882-0.185,32.816-0.297c11.932,0.112,23.863,0.219,32.814,0.297
								C1643.38,1786.196,1649.346,1786.4,1649.346,1786.4z"/>
						</g>
					</g>
				</g>
				<path style="fill:#BCB8B1;" d="M1678.547,1805.167c15.157,0,19.778-10.728,19.778-15.015c0-11.498-9.255-20.824-20.662-20.824
					h5.389c11.41,0,20.66,9.326,20.66,20.824c0,11.478-9.25,20.794-20.66,20.794h-326.95v-5.778H1678.547z"/>
			</g>
			<g>
				<path style="fill:#C54F1C;" d="M1536.081,1822.113c1.406,0,2.546-1.14,2.546-2.533c0-1.413-1.14-2.563-2.546-2.563h-178.459
					c-5.52,0.507-10.635,3.05-14.416,7.172c-3.83,4.18-5.927,9.569-5.927,15.191c0,5.632,2.097,11.021,5.927,15.192
					c3.781,4.141,8.896,6.684,14.416,7.181h178.459c1.406,0,2.546-1.14,2.546-2.553c0-1.403-1.14-2.543-2.546-2.543h-0.46v-34.543
					H1536.081z"/>
				<path style="fill:#D4CFCD;" d="M1693.081,1822.074h-152.196c-9.491,0-17.186,7.756-17.186,17.305
					c0,9.569,7.696,17.315,17.186,17.315h152.196V1822.074z"/>
				<path style="fill:#EE7423;" d="M1693.536,1856.655h-157.229h-0.01l0,0c-9.423-0.087-17.086-7.834-17.086-17.276
					c0-9.413,7.664-17.159,17.086-17.266l0,0h0.01h157.229c1.398,0,2.543-1.14,2.543-2.533c0-1.413-1.145-2.563-2.543-2.563
					h-159.083c-5.508,0.507-10.625,3.05-14.419,7.172c-3.815,4.18-5.924,9.569-5.924,15.191c0,5.632,2.11,11.021,5.924,15.192
					c3.793,4.141,8.911,6.684,14.419,7.181h159.083c1.398,0,2.543-1.14,2.543-2.553
					C1696.079,1857.795,1694.934,1856.655,1693.536,1856.655z"/>
				<g>
					<g>
						<path style="fill:#9B9494;" d="M1570,1828.495c0,0,5.508-0.112,13.771-0.282c8.261-0.068,19.276-0.156,30.292-0.244
							c11.016,0.088,22.031,0.176,30.292,0.244c8.263,0.166,13.771,0.282,13.771,0.282s-5.508,0.117-13.771,0.282
							c-8.26,0.068-19.276,0.156-30.292,0.244c-11.016-0.088-22.031-0.176-30.292-0.244
							C1575.508,1828.607,1570,1828.495,1570,1828.495z"/>
					</g>
					<g>
						<path style="fill:#9B9494;" d="M1541.124,1839.379c0,0,6.219-0.092,15.549-0.234c9.328-0.049,21.763-0.127,34.202-0.195
							c12.438,0.068,24.877,0.146,34.207,0.195c9.327,0.141,15.547,0.234,15.547,0.234s-6.219,0.093-15.547,0.234
							c-9.33,0.049-21.769,0.127-34.207,0.195c-12.438-0.068-24.874-0.146-34.202-0.195
							C1547.342,1839.472,1541.124,1839.379,1541.124,1839.379z"/>
					</g>
					<g>
						<path style="fill:#9B9494;" d="M1637.846,1847.204c0,0,3.452-0.093,8.63-0.234c5.177-0.048,12.083-0.127,18.987-0.195
							c6.904,0.068,13.81,0.146,18.987,0.195c5.179,0.141,8.631,0.234,8.631,0.234s-3.452,0.093-8.631,0.234
							c-5.177,0.048-12.083,0.127-18.987,0.195c-6.904-0.068-13.81-0.146-18.987-0.195
							C1641.298,1847.297,1637.846,1847.204,1637.846,1847.204z"/>
					</g>
					<g>
						<path style="fill:#9B9494;" d="M1631.549,1842.575c0,0,3.847-0.093,9.615-0.234c5.769-0.049,13.459-0.127,21.15-0.195
							c7.693,0.068,15.383,0.146,21.154,0.195c5.768,0.141,9.613,0.234,9.613,0.234s-3.844,0.092-9.613,0.234
							c-5.771,0.049-13.461,0.127-21.154,0.195c-7.691-0.068-15.381-0.146-21.15-0.195
							C1635.396,1842.668,1631.549,1842.575,1631.549,1842.575z"/>
					</g>
					<g>
						<path style="fill:#9B9494;" d="M1631.549,1833.776c0,0,3.847-0.146,9.615-0.366c5.769-0.175,13.459-0.238,21.15-0.287
							c7.693,0.049,15.385,0.107,21.154,0.287c5.768,0.22,9.613,0.366,9.613,0.366s-3.844,0.146-9.613,0.365
							c-5.769,0.181-13.461,0.239-21.154,0.288c-7.691-0.049-15.381-0.112-21.15-0.288
							C1635.396,1833.922,1631.549,1833.776,1631.549,1833.776z"/>
					</g>
					<g>
						<path style="fill:#9B9494;" d="M1636.857,1824.675c0,0,3.513-0.093,8.785-0.234c5.271-0.049,12.299-0.127,19.327-0.195
							c7.028,0.068,14.056,0.146,19.327,0.195c5.271,0.141,8.785,0.234,8.785,0.234s-3.513,0.092-8.785,0.234
							c-5.271,0.049-12.299,0.127-19.327,0.195c-7.028-0.068-14.056-0.146-19.327-0.195
							C1640.37,1824.768,1636.857,1824.675,1636.857,1824.675z"/>
					</g>
					<g>
						<path style="fill:#9B9494;" d="M1567.852,1849.903c0,0,5.785-0.092,14.465-0.234c8.679-0.048,20.251-0.127,31.822-0.195
							c11.571,0.068,23.142,0.146,31.822,0.195c8.68,0.142,14.465,0.234,14.465,0.234s-5.785,0.093-14.465,0.234
							c-8.679,0.049-20.251,0.127-31.822,0.195c-11.571-0.068-23.143-0.146-31.822-0.195
							C1573.637,1849.995,1567.852,1849.903,1567.852,1849.903z"/>
					</g>
					<g>
						<path style="fill:#9B9494;" d="M1564.436,1836.271c0,0,5.479-0.204,13.7-0.351c8.219-0.078,19.179-0.19,30.141-0.297
							c10.957,0.107,21.92,0.219,30.139,0.297c8.219,0.146,13.7,0.351,13.7,0.351s-5.481,0.205-13.7,0.351
							c-8.219,0.078-19.181,0.19-30.139,0.297c-10.962-0.107-21.922-0.219-30.141-0.297
							C1569.915,1836.475,1564.436,1836.271,1564.436,1836.271z"/>
					</g>
				</g>
				<path style="fill:#BCB8B1;" d="M1540.156,1851.9c-12.628,0-16.458-8.935-16.458-12.521c0-9.549,7.696-17.305,17.186-17.305
					h-4.497c-9.483,0-17.176,7.756-17.176,17.305c0,9.569,7.693,17.315,17.176,17.315h156.693v-4.794H1540.156z"/>
			</g>
		</g>
		<g>
			<g>
				<g>
					<path style="fill:#D4CFCD;" d="M1009.469,1052.795h307.586c10.677,0,19.354,8.701,19.354,19.498
						c0,10.738-8.677,19.469-19.354,19.469h-307.586V1052.795z"/>
					<path style="fill:#0EACE0;" d="M1008.945,1091.722h313.259l0,0l0,0c10.589-0.097,19.233-8.818,19.233-19.43
						c0-10.612-8.644-19.332-19.233-19.43l0,0l0,0h-313.259c-1.571,0-2.87-1.276-2.87-2.874c0-1.598,1.299-2.875,2.87-2.875h315.347
						c6.202,0.555,11.954,3.41,16.202,8.068c4.312,4.697,6.689,10.757,6.689,17.111c0,6.314-2.377,12.404-6.689,17.072
						c-4.249,4.677-10,7.542-16.202,8.097h-315.347c-1.571,0-2.87-1.306-2.87-2.875
						C1006.076,1092.989,1007.374,1091.722,1008.945,1091.722z"/>
					<g>
						<g>
							<g>
								<path style="fill:#9B9494;" d="M1284.268,1060.034c0,0-58.869,0.19-117.736,0.38c-58.869-0.19-117.739-0.38-117.739-0.38
									s58.87-0.19,117.739-0.38C1225.399,1059.844,1284.268,1060.034,1284.268,1060.034z"/>
							</g>
						</g>
						<g>
							<g>
								<path style="fill:#9B9494;" d="M1316.785,1072.292c0,0-48.426,0.156-96.854,0.312c-48.428-0.156-96.854-0.312-96.854-0.312
									s48.426-0.156,96.854-0.312C1268.358,1072.136,1316.785,1072.292,1316.785,1072.292z"/>
							</g>
						</g>
						<g>
							<g>
								<path style="fill:#9B9494;" d="M1159.536,1081.092c0,0-37.517,0.156-75.034,0.312c-37.515-0.156-75.032-0.312-75.032-0.312
									s37.517-0.156,75.032-0.312C1122.019,1080.935,1159.536,1081.092,1159.536,1081.092z"/>
							</g>
						</g>
						<g>
							<g>
								<path style="fill:#9B9494;" d="M1166.63,1075.878c0,0-39.291,0.156-78.582,0.312c-39.288-0.156-78.579-0.312-78.579-0.312
									s39.291-0.156,78.579-0.312C1127.339,1075.722,1166.63,1075.878,1166.63,1075.878z"/>
							</g>
						</g>
						<g>
							<g>
								<path style="fill:#9B9494;" d="M1166.63,1065.958c0,0-9.822,0.103-24.555,0.253c-14.735,0.058-34.38,0.137-54.026,0.215
									c-19.644-0.078-39.288-0.156-54.021-0.215c-14.735-0.151-24.558-0.253-24.558-0.253s9.822-0.102,24.558-0.253
									c14.733-0.059,34.377-0.137,54.021-0.214c19.647,0.078,39.291,0.156,54.026,0.214
									C1156.807,1065.856,1166.63,1065.958,1166.63,1065.958z"/>
							</g>
						</g>
						<g>
							<g>
								<path style="fill:#9B9494;" d="M1127.332,1055.728c0,0-29.466,0.156-58.932,0.312c-29.464-0.156-58.93-0.312-58.93-0.312
									s29.466-0.156,58.93-0.312C1097.866,1055.571,1127.332,1055.728,1127.332,1055.728z"/>
							</g>
						</g>
						<g>
							<g>
								<path style="fill:#9B9494;" d="M1286.702,1084.122c0,0-60.119,0.156-120.238,0.312c-60.121-0.156-120.24-0.312-120.24-0.312
									s60.119-0.156,120.24-0.312C1226.583,1083.966,1286.702,1084.122,1286.702,1084.122z"/>
							</g>
						</g>
						<g>
							<g>
								<path style="fill:#9B9494;" d="M1290.546,1068.794c0,0-9.189,0.102-22.977,0.254c-13.783,0.058-32.166,0.136-50.545,0.214
									c-18.38-0.078-36.762-0.156-50.545-0.214c-13.788-0.151-22.977-0.254-22.977-0.254s9.189-0.102,22.977-0.253
									c13.783-0.058,32.165-0.136,50.545-0.214c18.379,0.078,36.762,0.156,50.545,0.214
									C1281.357,1068.692,1290.546,1068.794,1290.546,1068.794z"/>
							</g>
						</g>
					</g>
					<path style="fill:#BCB8B1;" d="M1317.886,1086.363c14.18,0,18.524-10.046,18.524-14.071c0-10.797-8.677-19.498-19.354-19.498
						h5.037c10.701,0,19.345,8.701,19.345,19.498c0,10.738-8.644,19.469-19.345,19.469h-312.623v-5.398H1317.886z"/>
				</g>
				<g>
					<path style="fill:#213364;" d="M964.51,1181.855c0,0-9.031-18.329-9.031-42.192c0-23.795,9.031-42.153,9.031-42.153h428.303
						c0,0,4.975,10.134,4.975,42.153c0,32.048-4.975,42.192-4.975,42.192H964.51z"/>
					<path style="fill:#354E85;" d="M1384.114,1139.663c0-32.019-4.974-42.153-4.974-42.153h-19.966c0,0,5.002,10.134,5.002,42.153
						c0,32.048-5.002,42.192-5.002,42.192h19.966C1379.14,1181.855,1384.114,1171.712,1384.114,1139.663z"/>
					<path style="fill:#354E85;" d="M986.544,1139.663c0-32.019,4.979-42.153,4.979-42.153h19.941c0,0-4.977,10.134-4.977,42.153
						c0,32.048,4.977,42.192,4.977,42.192h-19.941C991.523,1181.855,986.544,1171.712,986.544,1139.663z"/>
					<path style="fill:#354E85;" d="M968.295,1139.663c0-32.019,4.998-42.153,4.998-42.153h9.971c0,0-4.991,10.134-4.991,42.153
						c0,32.048,4.991,42.192,4.991,42.192h-9.971C973.294,1181.855,968.295,1171.712,968.295,1139.663z"/>
				</g>
				<g>
					<path style="fill:#65BD56;" d="M983.801,1266.171c0,0-9.035-18.367-9.035-42.202c0-23.805,9.035-42.182,9.035-42.182h389.694
						c0,0,4.997,10.134,4.997,42.182c0,32.058-4.997,42.202-4.997,42.202H983.801z"/>
					<path style="fill:#86C555;" d="M1364.808,1223.969c0-32.048-4.986-42.182-4.986-42.182h-19.949c0,0,4.997,10.134,4.997,42.182
						c0,32.058-4.997,42.202-4.997,42.202h19.949C1359.822,1266.171,1364.808,1256.028,1364.808,1223.969z"/>
				</g>
				<g>
					<g>
						<path style="fill:#D4CFCD;" d="M1456.849,990.237c0,0-49.43-1.082-102.665-1.198c-56.903-0.107-118.191-2.241-150.912,14.724
							c-34.009,17.656-26.643,40.603-26.643,40.603l38.295-6.704c27.522,0,241.925,0,241.925,0V990.237z"/>
						<g>
							<g>
								<g>
									<path style="fill:#9B9494;" d="M1205.482,1015.231c0,0,0.521-0.302,1.498-0.877c0.943-0.634,2.482-1.257,4.419-2.124
										c3.946-1.52,9.79-3.177,16.943-4.394c14.297-2.504,33.615-3.805,52.92-4.336c19.315-0.37,38.628,0.01,53.099,0.497
										c14.475,0.536,24.104,1.228,24.104,1.228s-9.649-0.268-24.119-0.667c-14.47-0.356-33.774-0.55-53.059-0.02
										c-19.281,0.356-38.582,1.486-52.852,3.854c-3.564,0.604-6.816,1.223-9.674,1.89c-2.862,0.668-5.298,1.442-7.298,2.114
										c-1.944,0.804-3.5,1.388-4.46,1.998C1206.01,1014.939,1205.482,1015.231,1205.482,1015.231z"/>
								</g>
								<g>
									<path style="fill:#9B9494;" d="M1303.805,1019.47c0,0,9.576-0.132,23.941-0.331c7.184-0.044,15.564-0.097,24.541-0.156
										c4.49,0.019,9.128-0.18,13.841,0.029c4.714,0.166,9.5,0.341,14.288,0.516c9.573,0.434,19.147,0.867,28.121,1.277
										c4.492,0.131,8.809,0.614,12.916,0.896c4.102,0.321,7.985,0.624,11.567,0.906c7.162,0.541,13.123,1.101,17.286,1.598
										c4.163,0.468,6.544,0.731,6.544,0.731s-2.388-0.205-6.563-0.555c-4.165-0.424-10.148-0.711-17.31-1.218
										c-3.584-0.243-7.464-0.516-11.567-0.799c-4.107-0.239-8.428-0.682-12.916-0.78c-8.967-0.321-18.534-0.672-28.097-1.018
										c-4.78-0.219-9.563-0.434-14.27-0.648c-4.707-0.253-9.349-0.087-13.837-0.156c-8.979-0.019-17.359-0.039-24.541-0.058
										C1313.381,1019.562,1303.805,1019.47,1303.805,1019.47z"/>
								</g>
								<g>
									<path style="fill:#9B9494;" d="M1243.577,1013.184c0,0,3.186-0.175,8.763-0.487c5.578-0.351,13.547-0.706,23.122-0.935
										c9.574-0.248,20.741-0.634,32.711-0.872c11.97,0.024,24.74,0.044,37.51,0.063c6.385,0.058,12.77,0.112,19.055,0.166
										c6.287-0.059,12.463,0.336,18.441,0.643c11.956,0.609,23.118,1.179,32.681,1.666c19.118,1.081,31.866,1.802,31.866,1.802
										s-12.758-0.497-31.895-1.238c-9.564-0.424-20.721-0.916-32.677-1.447c-5.976-0.263-12.149-0.614-18.436-0.516
										c-6.28-0.015-12.663-0.025-19.045-0.034c-12.762-0.107-25.525-0.219-37.491-0.321c-11.966,0.156-23.13,0.467-32.701,0.643
										c-9.571,0.19-17.554,0.282-23.132,0.555C1246.766,1013.073,1243.577,1013.184,1243.577,1013.184z"/>
								</g>
								<g>
									<path style="fill:#9B9494;" d="M1285.91,994.69c0,0,2.589-0.253,7.123-0.692c2.268-0.224,5.018-0.492,8.175-0.799
										c3.162-0.244,6.706-0.829,10.619-0.819c3.907-0.093,8.141-0.195,12.619-0.302c4.478-0.059,9.208-0.332,14.088-0.224
										c9.761,0.205,20.187,0.137,30.592,0.585c10.399,0.565,20.806,1.004,30.541,1.783c9.739,0.663,18.825,1.354,26.601,2.066
										c7.785,0.614,14.246,1.432,18.777,1.9c4.526,0.516,7.11,0.809,7.11,0.809s-10.382-0.745-25.956-1.861
										c-7.781-0.614-16.867-1.189-26.606-1.725c-9.734-0.662-20.136-0.955-30.528-1.403c-10.388-0.58-20.792-0.643-30.538-0.97
										c-4.877-0.17-9.579,0.044-14.047,0.044c-4.468,0.049-8.691,0.098-12.589,0.141c-3.897-0.024-7.467,0.424-10.636,0.541
										c-3.167,0.186-5.924,0.356-8.2,0.492C1288.509,994.534,1285.91,994.69,1285.91,994.69z"/>
								</g>
								<g>
									<path style="fill:#9B9494;" d="M1258.563,1024.936c0,0,8.565-0.112,21.413-0.282c12.848-0.063,29.978-0.151,47.108-0.234
										c17.13,0.083,34.26,0.171,47.108,0.234c12.848,0.17,21.413,0.282,21.413,0.282s-8.565,0.112-21.413,0.282
										c-12.848,0.063-29.978,0.151-47.108,0.234c-17.13-0.083-34.26-0.171-47.108-0.234
										C1267.128,1025.048,1258.563,1024.936,1258.563,1024.936z"/>
								</g>
								<g>
									<path style="fill:#9B9494;" d="M1250.044,1001.268c0,0,2.777-0.341,7.64-0.94c2.429-0.297,5.379-0.662,8.765-1.077
										c3.384-0.429,7.196-0.975,11.405-1.004c8.399-0.224,18.212-0.96,28.711-0.882c10.497,0.102,21.708-0.146,32.899,0.327
										c11.191,0.438,22.382,0.877,32.854,1.583c10.485,0.58,20.258,1.262,28.628,1.915c8.38,0.565,15.335,1.369,20.214,1.798
										c4.872,0.492,7.657,0.775,7.657,0.775s-11.171-0.692-27.929-1.725c-8.375-0.555-18.149-1.12-28.631-1.578
										c-10.475-0.584-21.659-0.877-32.843-1.198c-11.174-0.604-22.36-0.482-32.847-0.711
										c-10.487-0.205-20.246,0.419-28.631,0.536c-4.195,0.019-8.027,0.419-11.425,0.726c-3.398,0.297-6.36,0.56-8.799,0.774
										C1252.831,1001.024,1250.044,1001.268,1250.044,1001.268z"/>
								</g>
								<g>
									<path style="fill:#9B9494;" d="M1178.366,1031.211c0,0,0.058-0.176,0.171-0.507c0.171-0.302,0.417-0.755,0.731-1.325
										c0.365-0.546,0.911-1.12,1.488-1.832c0.534-0.77,1.435-1.296,2.278-2.042c0.858-0.735,1.82-1.486,2.962-2.075
										c1.116-0.643,2.29-1.32,3.508-2.021c2.557-1.125,5.332-2.242,8.109-3.333c2.872-0.789,5.742-1.583,8.434-2.329
										c2.682-0.77,5.298-0.984,7.481-1.432c4.399-0.677,7.332-1.13,7.332-1.13s-2.887,0.682-7.218,1.705
										c-2.156,0.526-4.723,0.935-7.374,1.735c-2.655,0.779-5.491,1.607-8.322,2.441c-2.755,1.028-5.51,2.09-8.053,3.153
										c-1.216,0.643-2.392,1.267-3.506,1.861c-1.162,0.526-2.131,1.213-2.998,1.89c-0.843,0.692-1.798,1.15-2.368,1.842
										c-0.614,0.643-1.208,1.169-1.61,1.666c-0.358,0.536-0.641,0.955-0.831,1.247
										C1178.44,1031.041,1178.366,1031.211,1178.366,1031.211z"/>
								</g>
							</g>
							<g>
								<path style="fill:#9B9494;" d="M1178.366,1034.826c0,0,0.185-0.258,0.534-0.74c0.431-0.41,1.035-1.048,1.868-1.793
									c0.93-0.624,2.061-1.374,3.357-2.241c1.345-0.78,2.984-1.423,4.731-2.217c1.722-0.872,3.715-1.442,5.827-2.041
									c2.105-0.604,4.312-1.316,6.626-1.915c2.351-0.443,4.779-0.896,7.245-1.359c2.475-0.409,4.962-1.038,7.498-1.291
									c5.077-0.439,10.154-0.877,14.911-1.286c2.375-0.277,4.687-0.21,6.872-0.277c2.187-0.039,4.256-0.083,6.163-0.117
									c7.63-0.049,12.718-0.078,12.718-0.078s-5.079,0.253-12.699,0.633c-1.905,0.073-3.966,0.146-6.148,0.229
									c-2.18,0.107-4.487,0.078-6.85,0.395c-4.736,0.487-9.783,1.014-14.835,1.53c-2.528,0.214-5.003,0.789-7.471,1.159
									c-2.463,0.419-4.884,0.828-7.228,1.228c-2.304,0.555-4.502,1.223-6.606,1.783c-2.107,0.565-4.097,1.092-5.81,1.925
									c-1.727,0.774-3.396,1.325-4.762,2.027c-1.326,0.794-2.48,1.481-3.43,2.051c-0.833,0.721-1.491,1.296-1.939,1.686
									C1178.567,1034.578,1178.366,1034.826,1178.366,1034.826z"/>
							</g>
						</g>
					</g>
					<g>
						<path style="fill:#D4CFCD;" d="M896.411,990.237c0,0,49.407-1.082,102.647-1.198c56.93-0.107,128.364-0.76,159.862,18.367
							c21.098,12.833,17.719,36.959,17.719,36.959l-38.302-6.704c-27.525,0-241.927,0-241.927,0V990.237z"/>
						<path style="fill:#BCB8B1;" d="M1119.95,1037.662c-27.52,0-223.54,0-223.54,0v-8.994l0,0c199.25,0,213.798,0,221.452,0
							c15.593,0,58.776,15.698,58.776,15.698L1119.95,1037.662z"/>
						<g>
							<g>
								<g>
									<path style="fill:#9B9494;" d="M1147.772,1015.231c0,0-0.529-0.292-1.52-0.838c-0.96-0.609-2.516-1.193-4.46-1.998
										c-2-0.672-4.439-1.447-7.298-2.114c-2.858-0.668-6.11-1.286-9.674-1.89c-14.272-2.368-33.571-3.498-52.854-3.854
										c-19.284-0.531-38.589-0.336-53.059,0.02c-14.473,0.4-24.119,0.667-24.119,0.667s9.632-0.692,24.102-1.228
										c14.475-0.487,33.788-0.867,53.101-0.497c19.305,0.531,38.626,1.832,52.923,4.336c7.15,1.218,12.996,2.874,16.943,4.394
										c1.937,0.867,3.476,1.491,4.419,2.124C1147.251,1014.929,1147.772,1015.231,1147.772,1015.231z"/>
								</g>
								<g>
									<path style="fill:#9B9494;" d="M1049.432,1019.47c0,0-9.576,0.092-23.941,0.234c-7.182,0.02-15.559,0.039-24.536,0.058
										c-4.487,0.068-9.13-0.093-13.837,0.156c-4.706,0.214-9.485,0.429-14.265,0.648c-9.564,0.346-19.128,0.697-28.095,1.018
										c-4.487,0.097-8.806,0.541-12.914,0.78c-4.102,0.282-7.98,0.555-11.563,0.799c-7.162,0.507-13.143,0.794-17.311,1.218
										c-4.173,0.351-6.56,0.555-6.56,0.555s2.378-0.263,6.543-0.731c4.161-0.502,10.119-1.057,17.284-1.598
										c3.581-0.282,7.462-0.585,11.564-0.906c4.107-0.283,8.423-0.765,12.916-0.896c8.972-0.41,18.543-0.848,28.117-1.277
										c4.784-0.175,9.573-0.351,14.284-0.521c4.712-0.205,9.35-0.005,13.837-0.024c8.979,0.059,17.357,0.112,24.54,0.156
										C1039.859,1019.338,1049.432,1019.47,1049.432,1019.47z"/>
								</g>
								<g>
									<path style="fill:#9B9494;" d="M1109.698,1013.184c0,0-3.189-0.112-8.772-0.312c-5.579-0.273-13.562-0.365-23.133-0.555
										c-9.571-0.185-20.735-0.409-32.701-0.643c-11.966,0.102-24.728,0.214-37.491,0.321c-6.383,0.01-12.765,0.019-19.05,0.034
										c-6.285-0.098-12.458,0.248-18.434,0.516c-11.954,0.531-23.11,1.018-32.674,1.447c-19.137,0.741-31.897,1.238-31.897,1.238
										s12.745-0.721,31.866-1.802c9.566-0.487,20.723-1.058,32.681-1.666c5.978-0.307,12.154-0.702,18.443-0.643
										c6.285-0.054,12.668-0.107,19.055-0.166c12.769-0.02,25.539-0.04,37.51-0.063c11.966,0.316,23.138,0.619,32.711,0.872
										c9.576,0.229,17.544,0.585,23.123,0.935C1106.511,1013.009,1109.698,1013.184,1109.698,1013.184z"/>
								</g>
								<g>
									<path style="fill:#9B9494;" d="M1067.354,994.69c0,0-2.599-0.156-7.145-0.433c-2.275-0.137-5.033-0.307-8.199-0.492
										c-3.172-0.117-6.738-0.565-10.638-0.541c-3.898-0.043-8.12-0.092-12.587-0.141c-4.468,0-9.169-0.209-14.046-0.044
										c-9.749,0.327-20.151,0.39-30.538,0.97c-10.392,0.448-20.797,0.74-30.529,1.403c-9.744,0.536-18.83,1.111-26.611,1.725
										c-15.574,1.116-25.956,1.861-25.956,1.861s2.585-0.292,7.111-0.809c4.531-0.468,10.991-1.286,18.777-1.9
										c7.778-0.711,16.862-1.403,26.601-2.066c9.734-0.779,20.141-1.218,30.543-1.783c10.407-0.448,20.833-0.38,30.591-0.585
										c4.882-0.107,9.613,0.166,14.09,0.224c4.478,0.107,8.709,0.209,12.619,0.302c3.912-0.01,7.457,0.575,10.619,0.819
										c3.157,0.307,5.907,0.575,8.175,0.799C1064.765,994.437,1067.354,994.69,1067.354,994.69z"/>
								</g>
								<g>
									<path style="fill:#9B9494;" d="M1094.692,1024.936c0,0-8.565,0.112-21.41,0.282c-12.848,0.063-29.978,0.151-47.108,0.234
										c-17.13-0.083-34.26-0.171-47.108-0.234c-12.845-0.17-21.41-0.282-21.41-0.282s8.565-0.112,21.41-0.282
										c12.848-0.063,29.978-0.151,47.108-0.234c17.13,0.083,34.26,0.171,47.108,0.234
										C1086.126,1024.824,1094.692,1024.936,1094.692,1024.936z"/>
								</g>
								<g>
									<path style="fill:#9B9494;" d="M1103.23,1001.268c0,0-2.789-0.244-7.669-0.677c-2.441-0.219-5.403-0.482-8.802-0.779
										c-3.398-0.307-7.233-0.706-11.427-0.726c-8.387-0.117-18.143-0.741-28.636-0.536c-10.487,0.229-21.676,0.107-32.855,0.711
										c-11.181,0.322-22.368,0.614-32.845,1.198c-10.482,0.458-20.26,1.023-28.636,1.578c-16.76,1.033-27.934,1.725-27.934,1.725
										s2.784-0.283,7.659-0.775c4.879-0.429,11.836-1.233,20.216-1.798c8.373-0.653,18.148-1.335,28.631-1.915
										c10.477-0.711,21.669-1.145,32.862-1.583c11.194-0.473,22.404-0.224,32.903-0.327c10.504-0.078,20.317,0.658,28.716,0.882
										c4.209,0.029,8.024,0.575,11.408,1.004c3.384,0.419,6.336,0.779,8.767,1.077
										C1100.452,1000.927,1103.23,1001.268,1103.23,1001.268z"/>
								</g>
								<g>
									<path style="fill:#9B9494;" d="M1174.886,1031.211c0,0-0.076-0.171-0.212-0.487c-0.195-0.292-0.475-0.711-0.833-1.247
										c-0.402-0.497-0.994-1.028-1.61-1.666c-0.57-0.692-1.522-1.15-2.368-1.842c-0.87-0.677-1.839-1.364-2.998-1.89
										c-1.116-0.594-2.29-1.218-3.508-1.861c-2.543-1.062-5.296-2.124-8.051-3.153c-2.833-0.833-5.669-1.661-8.324-2.441
										c-2.653-0.799-5.218-1.208-7.376-1.735c-4.332-1.023-7.218-1.705-7.218-1.705s2.936,0.453,7.335,1.13
										c2.183,0.448,4.797,0.663,7.481,1.432c2.692,0.745,5.562,1.54,8.434,2.329c2.779,1.091,5.552,2.207,8.112,3.333
										c1.215,0.701,2.392,1.374,3.505,2.017c1.145,0.594,2.109,1.345,2.967,2.076c0.843,0.745,1.744,1.276,2.275,2.046
										c0.577,0.711,1.123,1.286,1.488,1.832c0.314,0.57,0.563,1.023,0.731,1.325
										C1174.825,1031.036,1174.886,1031.211,1174.886,1031.211z"/>
								</g>
							</g>
							<g>
								<path style="fill:#9B9494;" d="M1174.886,1034.826c0,0-0.198-0.248-0.573-0.711c-0.445-0.39-1.101-0.959-1.939-1.686
									c-0.95-0.565-2.105-1.257-3.43-2.046c-1.365-0.702-3.035-1.257-4.76-2.027c-1.713-0.833-3.703-1.364-5.813-1.924
									c-2.1-0.565-4.297-1.233-6.604-1.788c-2.346-0.4-4.767-0.809-7.228-1.228c-2.47-0.37-4.943-0.945-7.474-1.159
									c-5.047-0.516-10.1-1.043-14.83-1.53c-2.363-0.316-4.673-0.287-6.85-0.395c-2.183-0.083-4.246-0.156-6.151-0.229
									c-7.618-0.38-12.699-0.633-12.699-0.633s5.086,0.029,12.716,0.078c1.91,0.034,3.978,0.078,6.163,0.117
									c2.187,0.068,4.499,0,6.874,0.277c4.76,0.414,9.834,0.848,14.911,1.286c2.536,0.253,5.025,0.882,7.498,1.291
									c2.468,0.468,4.894,0.916,7.243,1.359c2.314,0.599,4.521,1.311,6.628,1.915c2.112,0.604,4.104,1.169,5.827,2.041
									c1.747,0.794,3.389,1.437,4.729,2.217c1.296,0.867,2.426,1.617,3.357,2.241c0.833,0.75,1.44,1.388,1.871,1.793
									C1174.701,1034.573,1174.886,1034.826,1174.886,1034.826z"/>
							</g>
						</g>
					</g>
					<path style="fill:#BCB8B1;" d="M1225.613,1037.662c27.532,0,231.236,0,231.236,0v-8.994l0,0c-199.263,0-213.798,0-221.467,0
						c-15.589,0-58.752,15.698-58.752,15.698L1225.613,1037.662z"/>
					<g>
						<path style="fill:#EC5E24;" d="M895.517,1037.584h240.918l37.493,9.579H895.517c-2.592,0-4.765-2.154-4.765-4.765
							C890.752,1039.737,892.925,1037.584,895.517,1037.584z"/>
						<path style="fill:#EC5E24;" d="M1457.711,1037.584h-240.892l-27.902,9.579h268.794c2.629,0,4.775-2.154,4.775-4.765
							C1462.486,1039.737,1460.34,1037.584,1457.711,1037.584z"/>
					</g>
					<path style="fill:#EE7423;" d="M1138.338,1037.662c0,0,17.927,2.611,38.292,2.611c20.336,0,38.295-2.611,38.295-2.611h3.605
						c-1.023,10.173-31.352,10.007-41.89,10.007l0,0h-0.01l0,0l0,0c-10.563,0-40.877,0.166-41.904-10.007H1138.338z"/>
				</g>
			</g>
			<g>
				<polygon style="fill:#B94033;" points="825.508,1263.229 804.896,1112.536 986.096,1112.536 965.876,1263.229 				"/>
				<path style="fill:#F15545;" d="M798.825,1112.536v-30.675c0-6.265,5.013-11.322,11.265-11.322h170.833
					c6.249,0,11.284,5.057,11.284,11.322v30.675H798.825z"/>
				<g>
					<g>
						<path style="fill:#71AD5E;" d="M958.42,1070.538H831.015c-18.855-86.693-32.757-201.84,69.054-201.84
							C974.142,868.699,1000.217,939.801,958.42,1070.538z"/>
					</g>
					<g>
						<path style="fill:#42833C;" d="M951.467,1049.589c-0.674,6.996-1.398,13.963-2.104,20.95h-3.418
							c2.843-29.651,5.717-59.313,8.068-89.09c1.571-20.18,2.989-40.477-1.564-61.145c-3.642-16.555-11.513-40.302-45.722-49.87
							c17.3,19.284,20.185,39.074,23.673,58.913c4.584,26.056,2.017,51.79-0.656,77.281c-2.244,21.29-4.509,42.591-6.736,63.912
							h-2.869c2.475-22.431,4.596-44.93,6.974-67.371c2.814-26.533,4.295-53.105-0.65-80.243
							c-3.123-17.442-6.616-34.582-21.286-51.497c-2.173,22.85-6.209,45.495-8.399,68.374c-3.4,34.972-5.941,70.012-7.885,105.14
							c-0.495,8.536-0.96,17.062-1.387,25.598h-3.439c1.386-28.58,3.177-57.081,5.135-85.563
							c2.059-30.528,4.131-61.125,8.874-91.332c1.186-7.591,2.117-15.318,5.172-22.665c-18.928,10.124-22.538,26.699-26.148,40.847
							c-4.244,16.38-6.534,33.062-8.706,49.705c-2.434,18.436-5.413,36.921-6.292,55.513c-0.782,17.841-1.44,35.634-2.049,53.495
							h-3.318c0.624-14.48,1.232-28.95,1.851-43.4c1.306-29.164,5.461-58.114,10.109-86.83c2.765-17.023,5.359-34.416,13.628-50.572
							c3.79-7.347,9.422-14.343,19.403-19.635c-28.078,2.222-42.74,15.152-50.823,28.034c-9.993,16.01-12.399,33.705-13.868,51.069
							c-2.331,27.556-2.141,55.532-2.095,83.293c0.036,12.687,0.207,25.364,0.431,38.041h-4.355c0-0.877-0.015-1.774-0.015-2.631
							c-0.224-28.97-0.41-57.997,0.926-86.84c1.467-31.639-1.732-66.844,25.398-93.992c8.799-8.896,22.836-16.614,42.745-18.377
							c3.245,0.195,6.628,0.536,10.151,0.955c19.819,5.379,30.28,17.734,36.377,27.956c9.41,15.834,11.074,32.282,11.686,48.039
							c0.543,14.1-0.875,27.985-1.774,41.987C955.199,1008.322,953.577,1028.98,951.467,1049.589z"/>
					</g>
				</g>
			</g>
		</g>
	</g>
	<g>
		<path style="fill:#002D33;" d="M653.438,1808.685c28.543,13.963,45.398,4.56,45.398,4.56
			c17.739,11.849,70.701,54.08,73.838,60.199c16.397,32.107-49.149,30.606-120.529-24.897
			C642.722,1841.23,645.826,1816.383,653.438,1808.685z"/>
		<path style="fill:#002D33;" d="M488.054,1808.685c28.545,13.963,45.388,4.56,45.388,4.56
			c17.744,11.849,70.708,54.08,73.831,60.199c16.414,32.107-49.137,30.606-120.518-24.897
			C477.338,1841.23,480.434,1816.383,488.054,1808.685z"/>
		<path style="fill:#07545D;" d="M735.311,1051.303c3.328,81.198,0.444,395.544-1.564,419.679
			c-1.754,21.116-29.568,343.461-26.967,347.135c-0.053-0.048-22.222,12.122-59.532-6.139l-28.263-340.996l-39.98-410.481
			L735.311,1051.303z"/>
		<path style="fill:#196C75;" d="M490.785,1470.983c-1.981-24.136-20.538-341.415-17.486-419.679h262.012v15.835l-63.171,44.043
			l-66.582,359.802l-63.352,346.979c-27.863,19.332-60.311-6.597-60.335-6.626C484.424,1807.72,492.539,1492.099,490.785,1470.983z"
			/>
		<g>
			<g>
				<path style="fill:#E39C86;" d="M785.303,920.654c-23.099-3.498-86.628-83.37-95.941-142.196l80.574,8.585l35.218,80.915
					C805.154,867.958,808.402,924.162,785.303,920.654z"/>
				<g>
					<path style="fill:#9DA5B3;" d="M799.805,826.341l-23.466-77.807c0,0,4.424-121.207-59.668-136.729
						c-31.903-7.746-44.616,43.926-36.74,127.872c2.168,23.055,25.532,127.307,25.532,127.307L799.805,826.341z"/>
				</g>
			</g>
			<g>
				<path style="fill:#F0A38B;" d="M537.978,604.818c36.91-13.174,30.762-80.545,30.762-80.545h85.753
					c0,0-6.132,67.371,30.786,80.545c3.544,1.267,45.807,60.092-30.786,60.092C577.907,664.91,535.283,605.792,537.978,604.818z"/>
				<path style="fill:#DB9783;" d="M590.241,586.772c-26.962,25.783-46.872,15.562-46.872,15.562l-0.017-0.01
					c30.889-17.53,25.379-78.05,25.379-78.05h85.763c0,0-1.072,13.018,0.662,28.891
					C655.156,553.164,617.207,561.018,590.241,586.772z"/>
			</g>
			<path style="fill:#F0A38B;" d="M514.056,338.521c18.538-60.336,99.648-60.336,99.648-60.336s85.982-1.121,99.648,60.336
				c12.59,56.535,10.283,118.371-6.675,150.897c-24.35,46.694-44.258,55.708-68.223,55.708c-47.899,0-68.252-10.68-87.278-31.6
				C505.754,463.558,495.54,398.847,514.056,338.521z"/>
			<path style="fill:#614342;" d="M714.034,470.427c14.271-85.524-2.789-75.507-9.237-114.805
				c-26.187,30.577-73.7,32.828-108.501,16.857c0,0-29.354,8.01-25.958,49.656c0.699,8.653-23.286-10.67-23.532-5.018
				c-1.242,28.316-10.624,54.966,1.479,93.125c0,0-40.65-14.626-52.099-61.534c-27.315-111.902,7.035-153.363,7.035-153.363
				c50.177-15.942,115.585-45.378,151.273-34.105c35.702,11.274,66.864,40.77,66.864,40.77s15.13-4.015,17.218,52.063
				C741.591,435.192,714.034,470.427,714.034,470.427z"/>
			<path style="fill:#6E4B4A;" d="M569.378,379.894c0,0-78.26-30.46-85.787-65.714c-7.518-35.274,17.018-44.248,25.515-38.294
				c12.816,8.984,12.669-0.624,53.271-29.856c50.706-36.511,145.117-23.065,158.98,55.98l-16.56,53.612
				C704.797,355.622,656.934,415.85,569.378,379.894z"/>
			<g>
				<g>
					<path style="fill:#EEECEC;" d="M682.62,483.299c-5.277,16.058-19.274,27.644-35.919,27.644
						c-16.616,0-30.609-11.586-35.88-27.644H682.62z"/>
					<g>
						<g>
							
								<path style="fill:none;stroke:#3A2323;stroke-width:6.4902;stroke-linecap:round;stroke-linejoin:round;stroke-miterlimit:10;" d="
								M685.007,403.865c-0.551,0.234,11.676-5.067,19.172,6.314"/>
							<g>
								<g>
									<path style="fill:#200709;" d="M689.608,417.662c4.329,0,7.852,3.518,7.852,7.864c0,4.316-3.523,7.825-7.852,7.825
										c-4.319,0-7.851-3.508-7.851-7.825C681.757,421.18,685.289,417.662,689.608,417.662z"/>
									<path style="fill:#200709;" d="M602.986,417.662c4.321,0,7.834,3.518,7.834,7.864c0,4.316-3.513,7.825-7.834,7.825
										c-4.326,0-7.854-3.508-7.854-7.825C595.132,421.18,598.66,417.662,602.986,417.662z"/>
								</g>
								
									<path style="fill:none;stroke:#3A2323;stroke-width:6.4902;stroke-linecap:round;stroke-linejoin:round;stroke-miterlimit:10;" d="
									M607.565,403.865c0,0-11.766-4.94-19.137,6.314"/>
							</g>
						</g>
						
							<path style="fill:none;stroke:#D5D7D6;stroke-width:4.6386;stroke-linecap:round;stroke-linejoin:round;stroke-miterlimit:10;" d="
							M660.471,463.168c0,0-1.598,3.197-9.627,3.197c-8.012,0-9.15-3.197-9.15-3.197"/>
					</g>
				</g>
				<path style="fill:#F0A38B;" d="M554.333,436.615c-2.424,1.471-5.264,2.299-8.302,2.299c-8.818,0-15.997-7.142-15.997-15.99
					c0-8.818,7.179-16,15.997-16c3.761,0,17.198,1.364,16.312,16"/>
			</g>
			<path style="fill:#A9B0C1;" d="M470.834,1046.539c0,0-19.305-424.98,10.672-434.374c9.406-2.933,45.186-4.502,55.264-8.107
				c0,0,52.536,42.221,107.916,42.221c55.4,0,39.379-42.221,39.379-42.221s24.202,2.533,32.913,14.012
				c33.174,43.839,8.112,281.118,38.864,441.75c0,0-37.895,32.516-130.615,32.516
				C532.509,1092.336,470.834,1046.539,470.834,1046.539z"/>
			<g>
				<g>
					<path style="fill:#E39C86;" d="M452.105,941.818c-27.82-35.673-36.095-124.54-35.807-175.073l74.538,31.756l17.062,90.718
						C507.898,889.22,475.036,971.227,452.105,941.818z"/>
					<g>
						<path style="fill:#B7BECF;" d="M505.16,837.995c0,0,0.102-52.765,1.13-83.147c1.035-30.372,26.202-136.223-20.616-143.219
							c-46.808-7.016-63.997,32.185-72.314,116.082c-2.29,23.045-1.837,113.246-1.837,113.246L505.16,837.995z"/>
					</g>
				</g>
				<g>
					<path style="fill:#F0A38B;" d="M870.779,699.706c0,0-24.784-6.236-25.619,7.172c-2.458,39.62,3.149,61.963,3.149,61.963
						l-59.52,80.788c0,0-36.928,45.038-12.348,66.435c24.597,21.408,68.93-30.772,101.88-150.361
						C878.32,765.703,902.116,716.758,870.779,699.706z"/>
					<g>
						<g>
							<path style="fill:#AD812B;" d="M817.817,669.295c50.95-38.012,127.163-26.055,127.163-26.055L816.134,791.019
								c0,0-55.273-7.932-128.866,39.629L817.817,669.295z"/>
							<path style="fill:#C89531;" d="M779.725,670.503c0,0-79.936-46.011-176.983-10.436L477.374,842.37
								c0,0,154.888-56.194,173.485-11.722L779.725,670.503z"/>
							<path style="fill:#8A6E2F;" d="M817.817,669.295l-1.683-5.057c50.942-38.002,128.847-27.264,128.847-27.264v6.266
								C944.98,643.239,868.767,631.283,817.817,669.295z"/>
							<g>
								<polygon style="fill:#BB8B2E;" points="602.742,653.802 602.742,660.067 477.374,842.37 477.374,836.105 								"/>
							</g>
							<g>
								<path style="fill:#A47C2A;" d="M602.742,653.802c97.047-35.595,176.941,10.592,176.941,10.592l0.042,6.109
									c0,0-79.936-46.011-176.983-10.436V653.802z"/>
							</g>
							<path style="fill:#BB8B2E;" d="M817.817,669.295c0,0-25.276,15.192-38.092,1.208L650.859,830.648c0,0,9.724,12.287,36.409,0
								L817.817,669.295z"/>
							<path style="fill:#A47C2A;" d="M817.817,669.295c0,0-25.259,15.172-38.078,1.218l-0.056-6.12
								c12.918,13.876,36.451-0.156,36.451-0.156l1.683,4.93V669.295z"/>
						</g>
						<path style="fill:#BDBEB8;" d="M816.134,664.238c0,0-11.795,6.869-23.25,6.071c17.712-16.049,61.51-44.696,146.347-40.701
							l-0.171,6.753C920.138,634.762,858.776,632.414,816.134,664.238z"/>
						<path style="fill:#BDBEB8;" d="M816.134,664.238c0,0-11.795,6.869-23.25,6.071c17.712-16.049,61.51-44.696,146.347-40.701
							l-0.171,6.753C920.138,634.762,858.776,632.414,816.134,664.238z"/>
						<path style="fill:#BDBEB8;" d="M779.683,664.393c0,0-77.873-44.842-173.219-11.781l5.116-10.504
							c88.294-27.41,149.636,0.049,176.14,27.138C784.845,668.32,782.073,666.927,779.683,664.393z"/>
						<path style="fill:#C8C9C1;" d="M787.72,669.246c-25.832-26.397-84.837-52.989-169.558-28.95l6.58-9.958
							c91.819-21.564,141.614,9.276,165.197,39.61C789.191,669.792,788.46,669.47,787.72,669.246z"/>
						<path style="fill:#D6D7CE;" d="M789.878,669.909c0.027,0.019,0.034,0.019,0.061,0.039
							c-23.116-29.739-71.5-59.829-159.847-40.711l6.999-9.276c91.521-19.371,133.687,16.37,153.801,50.26
							C790.536,670.162,790.221,669.997,789.878,669.909z"/>
						<path style="fill:#C8C9C1;" d="M792.884,670.308c-0.19-0.019-0.385,0-0.575-0.039c13.388-18.153,49.364-49.86,137.694-48.837
							v7.941C851.281,627.814,809.922,654.854,792.884,670.308z"/>
						<path style="fill:#D6D7CE;" d="M792.309,670.269c0.154,0.02,0.309,0.02,0.463,0.02c-0.497-0.029-0.996,0.019-1.491-0.059
							c12.436-20.365,47.057-58.582,131.521-56.496v7.786C839.81,622.299,805.332,652.642,792.309,670.269z"/>
					</g>
					<path style="fill:#F0A38B;" d="M467.72,879.515c56.708-34.27,93.899-62.626,107.168-79.863
						c15.189-19.712,14.465-18.192,28.424-29.476c13.956-11.293,22.852-5.719,18.626-0.331c-5.165,6.568-9.74,9.588-10.957,11.966
						c8.039-5.632,23.289-12.969,31.893-14.704c15.571-3.128,31.198,7.454,22.932,21.515c-27.829,47.512-62.75,35.264-69.163,40.194
						c-61.276,99.839-118.428,134.265-139.638,118.333C439.177,933.741,445.998,892.65,467.72,879.515z"/>
					<path style="fill:#F0A38B;" d="M848.309,768.841c-0.282-9.803-14.231-34.66-10.441-55.747
						c2.714-15.025,32.911-36.667,42.679,4.015"/>
				</g>
			</g>
		</g>
	</g>
</g>
</svg>
