<?xml version="1.0" encoding="utf-8"?>
<!-- Generator: Adobe Illustrator 27.5.0, SVG Export Plug-In . SVG Version: 6.00 Build 0)  -->
<svg version="1.1" xmlns="http://www.w3.org/2000/svg" xmlns:xlink="http://www.w3.org/1999/xlink" x="0px" y="0px"
	 viewBox="0 0 500 500" style="enable-background:new 0 0 500 500;" xml:space="preserve">
<g id="BACKGROUND">
	<rect style="fill:none;" width="500" height="500"/>
	<path style="fill:#F96629;" d="M332.553,123.667c-22.742-20.224-45.687-40.597-72.032-55.835
		c-26.345-15.238-56.668-25.168-86.998-22.642c-27.387,2.28-53.339,14.671-74.555,32.139c-21.215,17.469-37.971,39.832-51.8,63.581
		c-24.529,42.126-40.347,94.104-22.396,139.426c11.977,30.241,37.318,53.154,63.925,71.864
		c62.092,43.664,135.871,70.54,211.499,77.048c38.14,3.282,78.105,1.109,112.082-16.526c33.975-17.635,60.47-53.597,57.786-91.784
		c-1.626-23.161-13.33-44.318-25.842-63.877C411.864,206.47,373.012,159.648,332.553,123.667z"/>
</g>
<g id="OBJECTS">
	<path style="fill:#F96629;" d="M107.907,439.667c-11.288-0.91-22.829,1.609-32.711,7.138c-3.617,2.024-7.378,5.076-7.459,9.221
		c-0.063,3.23,2.275,6.123,5.115,7.665c2.841,1.541,6.127,1.991,9.332,2.401c58.733,7.499,118.071,9.743,176.81,9.856
		c57.433,0.11,115.015,1.198,172.129-4.842c13.263-1.402,26.779-3.247,38.705-9.217c5.517-2.764,11.256-7.775,10.266-13.865
		c-0.655-4.026-4.248-7.066-8.139-8.291c-3.889-1.224-8.069-0.98-12.137-0.722L107.907,439.667z"/>
	<g>
		<path style="opacity:0.18;fill:#8C1438;" d="M429.39,415.865c-23.309-2.826-46.315-3.86-69.318-3.855
			c26.58-62.169,48.857-110.894,70.91-155.097l2.672,1.441l10.245-22.826c3.276-0.931,6.229-3.054,7.976-5.986
			c2.821-4.733,2.793-11.694-2.236-16.516c-3.522-3.376-8.975-4.504-13.587-2.986l-13.659-15.547l-1.412,1.16
			c-12.957-14.425-26.044-29.165-38.748-43.485c-12.617-14.222-25.61-28.857-38.49-43.199l1.066-0.844l-12.489-15.1
			c0.962-4.611-0.498-10.585-4.372-12.295c-3.669-1.62-8.189-1.193-11.436,1.16c-1.117,0.81-2.059,1.843-2.797,3.008l-2.629-0.072
			c1.43-8.753,2.681-17.511,3.741-26.291c-22.281-17.139-46.841-27.844-72.438-31.444c-23.336,20.366-43.429,46.764-59.868,75.273
			c28.172,33.787,69.391,53.783,112.139,57.159c5.868-21.479,10.743-42.674,14.564-63.848l3.996,0.109
			c1.352,2.471,3.669,4.423,6.389,5.164c0.443,0.121,0.894,0.195,1.346,0.247l11.999,16.309l2.227-1.762
			c13.007,14.479,26.146,29.279,38.901,43.656c12.611,14.214,25.597,28.841,38.47,43.176l-1.253,1.029l16.151,15.834
			c-0.436,1.643-0.57,3.361-0.341,5.05c0.307,2.272,1.264,4.417,2.658,6.234l-9.996,20.15l1.616,0.871
			c-22.715,45.512-45.645,95.752-73.201,160.365c-24.012,0.359-48.078,1.709-72.541,3.241c-9.575,0.601-17.677,7.3-20.071,16.59
			l-2.021,7.847c65.105,4.237,130.445,4.866,194.959,2.722c0.019-0.087,0.037-0.174,0.055-0.26
			C451.266,429.567,442.258,417.426,429.39,415.865z"/>
		<g>
			<path style="fill:#F8A500;" d="M251.855,147.691c-5.258,8.581-14.28,14.991-24.27,16.199c-9.99,1.207-20.686-3.205-26.19-11.631
				c-5.504-8.425-4.997-20.577,1.829-27.972L251.855,147.691z"/>
			<path style="fill:#302D38;" d="M302.186,60.608c-3.369,33.722-9.493,67.169-18.088,101.381
				c-42.808-2.497-84.429-21.642-113.289-54.843c15.85-28.84,35.396-55.646,58.309-76.487
				C254.783,33.732,279.557,43.93,302.186,60.608z"/>
			<path style="fill:#FFFFFF;" d="M343.85,430.876c-0.674,0-1.358-0.126-2.021-0.392c-2.794-1.117-4.152-4.288-3.034-7.081
				c29.717-74.267,53.79-129.948,78.055-180.542c1.301-2.712,4.555-3.856,7.268-2.556c2.713,1.301,3.857,4.555,2.557,7.268
				c-24.157,50.367-48.14,105.844-77.764,179.877C348.058,429.58,346.012,430.876,343.85,430.876z"/>
			<path style="fill:#FFFFFF;" d="M411.657,209.495c-1.452,0-2.9-0.577-3.973-1.719c-14.733-15.692-29.704-31.885-44.184-47.544
				c-14.458-15.637-29.407-31.806-44.105-47.46c-2.06-2.193-1.95-5.641,0.243-7.701c2.192-2.058,5.641-1.951,7.7,0.243
				c14.726,15.684,29.69,31.869,44.161,47.521c14.465,15.645,29.423,31.822,44.127,47.483c2.06,2.193,1.95,5.641-0.243,7.701
				C414.334,209.006,412.994,209.495,411.657,209.495z"/>
			<path style="fill:#302D38;" d="M248.758,443.036c65.178,2.899,130.518,2.185,194.974-1.284c0.017-0.087,0.034-0.174,0.049-0.262
				c2.438-12.731-6.818-24.684-19.716-25.98c-51.764-5.2-101.859-1.681-153.723,2.64c-9.56,0.797-17.524,7.661-19.726,16.999
				L248.758,443.036z"/>
			<g>
				<polygon style="fill:#302D38;" points="401.618,203.663 419.678,220.655 428.946,212.265 412.522,194.327 				"/>
				<g>
					<path style="fill:#302D38;" d="M440.142,212.297c-4.056-3.73-10.517-4.55-15.375-1.952c-4.86,2.598-7.764,8.429-6.914,13.873
						c0.851,5.444,5.398,10.109,10.818,11.099c5.42,0.992,11.323-1.763,14.046-6.553C445.44,223.974,445.27,217.015,440.142,212.297
						z"/>
					<path style="fill:#8229FF;" d="M434.899,217.73c-2.007-1.422-4.914-1.515-6.921-0.093c-2.008,1.421-2.871,4.319-1.83,6.548
						c0.878,1.881,2.999,3.085,5.068,2.928c2.07-0.157,3.966-1.636,4.672-3.588C436.594,221.573,436.484,218.852,434.899,217.73z"/>
				</g>
				<polygon style="fill:#302D38;" points="421.259,229.079 411.059,250.746 425.092,257.944 434.875,234.893 				"/>
			</g>
			<g>
				<polygon style="fill:#302D38;" points="307.604,101.068 321.52,119.192 333.181,109.571 318.554,92.609 				"/>
				<path style="fill:#302D38;" d="M308.973,97.933c-0.013,0-0.025,0-0.037,0l-16.82-0.113c-3.009-0.021-5.432-2.476-5.411-5.484
					c0.02-2.996,2.455-5.411,5.446-5.411c0.013,0,0.025,0,0.037,0l16.82,0.113c3.009,0.021,5.432,2.476,5.411,5.484
					C314.399,95.518,311.964,97.933,308.973,97.933z"/>
				<g>
					<path style="fill:#302D38;" d="M315.76,82.528c-3.702-1.545-8.212-1.025-11.409,1.395c-3.2,2.421-4.928,6.678-4.232,10.628
						c0.696,3.951,3.828,7.389,7.719,8.362c4.875,1.22,10.432-1.765,12.107-6.503C321.62,91.672,320.161,84.364,315.76,82.528z"/>
					<path style="fill:#8229FF;" d="M311.904,90.624c-1.268-1.289-3.581-1.335-4.9-0.098c-1.318,1.237-1.42,3.548-0.214,4.896
						c1.206,1.348,3.513,1.505,4.889,0.331C313.056,94.579,313.405,92.15,311.904,90.624z"/>
				</g>
			</g>
		</g>
	</g>
	<g>
		<path style="opacity:0.18;fill:#8C1438;" d="M363.002,409.419c-85.921-4.596-170.484-7.289-256.48-8.144
			c-2.107-0.021-3.826,1.695-3.806,3.802c0,0.036,0.001,0.073,0.001,0.109c0.019,1.989,1.581,3.621,3.568,3.72
			c1.199,0.06,2.706,0.128,4.469,0.204c4.669,9.252,4.906,20.646,0.628,30.085c-1.985-0.07-3.971-0.139-5.956-0.209
			c-1.721-0.06-3.254,1.079-3.7,2.742c-0.006,0.022-0.012,0.044-0.017,0.065c-0.603,2.294,1.078,4.556,3.449,4.637
			c86.219,2.931,171.569,5.709,256.285,7.315c11.646,0.222,21.495-8.672,22.378-20.287c0.011-0.143,0.023-0.286,0.032-0.429
			C384.777,420.713,375.335,410.079,363.002,409.419z"/>
		<g>
			<g>
				<g>
					<g>
						<path style="fill:#FFFFFF;" d="M107.451,439.944c5.823-10.858,5.203-24.878-1.555-35.18l177.547,0.772l-0.327,37.281
							L107.451,439.944z"/>
						<path style="opacity:0.18;fill:#8C1438;" d="M109.739,412.881c17.824-0.182,94.866-0.905,95.422,0.159
							c-29.56,12.628-62.091,18.208-94.171,16.237c-0.584,3.72-1.756,7.343-3.539,10.667l175.665,2.872l0.327-37.281l-177.547-0.772
							C107.547,407.281,108.826,410.021,109.739,412.881z"/>
					</g>
					<g>
						<path style="fill:#C4F0F5;" d="M270.444,440.531c5.83-9.936,5.062-23.343-1.861-32.548c0,0,98.343-0.824,99.303-0.424
							c5.726,2.665,8.517,9.65,7.813,15.928c-0.704,6.278-4.251,11.89-8.358,16.691L270.444,440.531z"/>
						<path style="opacity:0.18;fill:#8C1438;" d="M270.444,440.531c5.83-9.936,5.062-23.343-1.861-32.548
							c0,0,98.343-0.824,99.303-0.424c5.726,2.665,8.517,9.65,7.813,15.928c-0.704,6.278-4.251,11.89-8.358,16.691L270.444,440.531z
							"/>
					</g>
				</g>
				<g>
					
						<path style="fill:none;stroke:#302D38;stroke-width:1.5;stroke-linecap:round;stroke-linejoin:round;stroke-miterlimit:10;" d="
						M109.379,416.175c87.605-3.377,175.347-3.158,262.935,0.658"/>
					
						<path style="fill:none;stroke:#302D38;stroke-width:1.5;stroke-linecap:round;stroke-linejoin:round;stroke-miterlimit:10;" d="
						M109.792,424.916c89.425-1.34,178.87-1.443,268.299-0.309"/>
					
						<path style="fill:none;stroke:#302D38;stroke-width:1.5;stroke-linecap:round;stroke-linejoin:round;stroke-miterlimit:10;" d="
						M110.157,433.374c88.866,0.263,177.738-1.509,266.523-5.315"/>
				</g>
			</g>
			<g>
				<g>
					<path style="fill:#1DACBB;" d="M359.539,401.577c-86.006-2.557-170.609-3.244-256.601-2.059
						c-2.107,0.029-3.784,1.785-3.714,3.891c0.001,0.036,0.002,0.073,0.004,0.109c0.066,1.988,1.666,3.583,3.655,3.635
						c27.057,0.708,203.335,1.978,256.273,2.472c8.279,0.077,14.792,6.911,14.539,15.185c-0.003,0.105-0.007,0.21-0.01,0.314
						c-0.254,7.926-6.778,14.214-14.706,14.201c-85.207-0.142-170.724-1.107-256.243-2.081c-1.722-0.02-3.227,1.156-3.634,2.83
						c-0.005,0.022-0.011,0.044-0.016,0.065c-0.548,2.308,1.186,4.529,3.558,4.554c86.264,0.886,171.656,1.639,256.386,1.235
						c11.648-0.055,21.284-9.179,21.891-20.812c0.008-0.144,0.016-0.286,0.022-0.43
						C381.576,412.352,371.885,401.945,359.539,401.577z"/>
					<g>
						<path style="fill:#21C5D6;" d="M269.9,438.907c-55.664-0.402-111.412-1.028-167.164-1.663
							c-1.722-0.019-3.227,1.156-3.634,2.83c-0.005,0.022-0.011,0.044-0.016,0.065c-0.548,2.308,1.186,4.529,3.558,4.554
							c55.932,0.574,111.493,1.087,166.749,1.271C268.582,443.677,268.763,441.05,269.9,438.907z"/>
						<path style="fill:#21C5D6;" d="M102.938,399.518c-2.107,0.029-3.784,1.785-3.714,3.891c0.001,0.036,0.002,0.073,0.004,0.109
							c0.066,1.988,1.666,3.583,3.655,3.635c17.615,0.461,98.478,1.16,167.378,1.728c-0.78-1.4-1.072-3.077-0.747-4.649
							c0.402-1.945,1.73-3.663,3.484-4.584C216.381,398.788,159.962,398.732,102.938,399.518z"/>
					</g>
				</g>
				<path style="opacity:0.18;fill:#8C1438;" d="M359.03,445.928c11.648-0.055,21.284-9.179,21.891-20.812
					c0.008-0.144,0.016-0.286,0.022-0.43c0.055-1.063,0.027-2.11-0.067-3.139c-2.445,0.293-4.885,0.582-7.318,0.865
					c0.102,0.784,0.161,1.581,0.136,2.397c-0.003,0.105-0.007,0.21-0.01,0.314c-0.253,7.926-6.778,14.214-14.706,14.201
					c-78.659-0.131-157.583-0.964-236.529-1.857c-8.45,0.038-15.473,0.013-20.921-0.032c-1.183,0.394-2.12,1.373-2.427,2.639
					c-0.005,0.022-0.011,0.044-0.016,0.065c-0.548,2.308,1.186,4.529,3.558,4.554C188.908,445.579,274.3,446.332,359.03,445.928z"/>
				<path style="opacity:0.3;fill:#FFFFFF;" d="M359.539,401.577c-86.006-2.557-170.609-3.244-256.601-2.059
					c-2.091,0.029-3.754,1.759-3.711,3.844c91.313-0.591,182.637,0.55,273.907,3.409
					C369.451,403.667,364.732,401.732,359.539,401.577z"/>
			</g>
		</g>
	</g>
	<g>
		<path style="opacity:0.18;fill:#8C1438;" d="M435.871,397.465c-1.499-0.027-3.307-0.059-5.357-0.096
			c-4.267-15.331-2.588-32.241,4.646-46.418c0.441,0.004,0.883,0.007,1.324,0.011c2.66,0.022,4.801-2.182,4.701-4.841
			c-0.093-2.492-2.13-4.468-4.624-4.488c-118.977-0.973-237.45-3.133-355.923-5.296c-9.748,9.205-15.431,20.129-16.803,31.618
			c-1.372,11.49,1.582,23.444,9.593,33.922c120.763,1.705,241.527,3.41,362.289,5.115c2.436,0.034,4.505-1.775,4.797-4.193
			C440.852,399.996,438.693,397.516,435.871,397.465z"/>
		<g>
			<g>
				<g>
					<path style="fill:#FFFFFF;" d="M433.327,345.451c-7.742,15.007-9.215,33.129-3.995,49.19l-163.729-0.022l2.871-50.925
						L433.327,345.451z"/>
					<path style="fill:#D6DDFF;" d="M278.88,391.779c0.015-15.279,0.029-30.56,0.045-45.84v-2.134l-10.45-0.111l-2.871,50.925
						l13.293,0.002L278.88,391.779z"/>
					<path style="opacity:0.18;fill:#8C1438;" d="M265.603,394.619l163.729,0.022c-1.242-3.82-2.092-7.759-2.582-11.743
						c-18.687-0.829-37.387-2.37-55.635-6.426c-20.081-4.464-39.695-12.084-56.208-24.348c39.539-0.649,77.712-0.751,115.776-0.812
						c0.78-1.997,1.66-3.955,2.644-5.862l-164.852-1.757L265.603,394.619z"/>
				</g>
				<g>
					
						<path style="fill:none;stroke:#302D38;stroke-width:1.5;stroke-linecap:round;stroke-linejoin:round;stroke-miterlimit:10;" d="
						M278.925,358.076c50.198-3.194,100.571-3.639,150.818-1.336"/>
					
						<path style="fill:none;stroke:#302D38;stroke-width:1.5;stroke-linecap:round;stroke-linejoin:round;stroke-miterlimit:10;" d="
						M278.925,366.297c49.411-0.223,98.822-0.447,148.233-0.67"/>
					
						<path style="fill:none;stroke:#302D38;stroke-width:1.5;stroke-linecap:round;stroke-linejoin:round;stroke-miterlimit:10;" d="
						M278.88,377.521c49.28-0.583,98.559-1.168,147.84-1.752"/>
					
						<path style="fill:none;stroke:#302D38;stroke-width:1.5;stroke-linecap:round;stroke-linejoin:round;stroke-miterlimit:10;" d="
						M278.879,386.808c49.803-0.57,99.608-1.14,149.411-1.709"/>
				</g>
			</g>
			<g>
				<g>
					<path style="fill:#4766FF;" d="M438.935,341.332L438.935,341.332c0.125,2.658-1.995,4.882-4.655,4.885
						c-52.884,0.069-105.766,0.138-158.65,0.209c-7.767,13.548-8.121,30.509-2.109,44.95c0.244-0.008,132.339,1.109,160.586,1.348
						c2.823,0.024,5.005,2.483,4.694,5.289l0,0c-0.269,2.421-2.321,4.25-4.757,4.239c-120.774-0.561-241.548-1.121-362.322-1.682
						c-8.11-10.401-11.177-22.327-9.914-33.829c1.263-11.501,6.842-22.479,16.503-31.776c118.489,1.04,236.977,2.078,355.958,1.923
						C436.763,336.884,438.818,338.841,438.935,341.332z"/>
					<g>
						<path style="fill:#6E86FF;" d="M77.897,377.953c3.62,4.274,10.045,5.905,15.265,3.876c5.221-2.029,8.856-7.572,8.638-13.168
							c-0.217-5.597-4.139-11.374-10.801-12.755c-5.485-1.136-11.55,1.537-14.412,6.352
							C73.726,367.072,74.277,373.678,77.897,377.953z"/>
						<path style="fill:#6E86FF;" d="M255.724,336.371c-4.753-0.03-9.504-0.066-14.257-0.097
							c-11.458,19.633-11.429,45.522,0.188,65.084c5.318,0.025,10.636,0.049,15.954,0.074
							C249.865,380.738,249.2,357.48,255.724,336.371z"/>
					</g>
					<g>
						<defs>
							<path id="SVGID_1_" d="M438.935,341.332L438.935,341.332c0.125,2.658-1.995,4.882-4.655,4.885
								c-52.884,0.069-105.766,0.138-158.65,0.209c-7.767,13.548-8.121,30.509-2.109,44.95c0.244-0.008,132.339,1.109,160.586,1.348
								c2.823,0.024,5.005,2.483,4.694,5.289l0,0c-0.269,2.421-2.321,4.25-4.757,4.239c-120.774-0.561-241.548-1.121-362.322-1.682
								c-8.11-10.401-11.177-22.327-9.914-33.829c1.263-11.501,6.842-22.479,16.503-31.776
								c118.489,1.04,236.977,2.078,355.958,1.923C436.763,336.884,438.818,338.841,438.935,341.332z"/>
						</defs>
						<clipPath id="SVGID_00000178168556582589931200000010688699057291523983_">
							<use xlink:href="#SVGID_1_"  style="overflow:visible;"/>
						</clipPath>
						
							<path style="clip-path:url(#SVGID_00000178168556582589931200000010688699057291523983_);fill:none;stroke:#302D38;stroke-width:1.5;stroke-linecap:round;stroke-linejoin:round;stroke-miterlimit:10;" d="
							M117.529,353.879c-2.18,8.347-2.405,17.196-0.651,25.643c0,0,59.109-0.009,58.888,0.47c-1.104-8.657-1.023-17.465,0.242-26.1
							L117.529,353.879z"/>
						
							<path style="clip-path:url(#SVGID_00000178168556582589931200000010688699057291523983_);fill:none;stroke:#302D38;stroke-width:1.5;stroke-linecap:round;stroke-linejoin:round;stroke-miterlimit:10;" d="
							M193.909,354.722c-0.844,8.418-0.917,16.915-0.218,25.347"/>
						
							<path style="clip-path:url(#SVGID_00000178168556582589931200000010688699057291523983_);fill:none;stroke:#302D38;stroke-width:1.5;stroke-linecap:round;stroke-linejoin:round;stroke-miterlimit:10;" d="
							M217.313,333.825c-9.213,23.322-8.587,50.354,1.699,73.224"/>
					</g>
				</g>
				<path style="opacity:0.18;fill:#8C1438;" d="M434.044,402.251c2.436,0.011,4.488-1.817,4.757-4.239
					c0.311-2.806-1.871-5.265-4.694-5.289c-28.247-0.239-160.342-1.356-160.586-1.348c-0.938-2.254-1.703-4.574-2.327-6.928
					c-69.989-2.889-139.826-9.436-209.131-19.612c-0.096,0.633-0.185,1.268-0.254,1.905c-1.263,11.503,1.804,23.428,9.914,33.829
					C192.496,401.13,313.271,401.69,434.044,402.251z"/>
				<path style="opacity:0.3;fill:#FFFFFF;" d="M434.269,336.887c-118.981,0.155-237.469-0.883-355.958-1.923
					c-2.13,2.05-4.05,4.186-5.781,6.388c122.097,0.389,244.195,0.778,366.292,1.166c0.081-0.383,0.132-0.777,0.113-1.187
					C438.818,338.841,436.763,336.884,434.269,336.887z"/>
			</g>
			<path style="fill:#E33C50;" d="M290.738,363.451c6.535,9.534,9.342,21.554,7.705,32.996l9.829-9.296
				c0,0,6.493,10.178,6.811,10.413c4.777-11.171,3.001-24.875-4.466-34.459L290.738,363.451z"/>
		</g>
	</g>
	<g>
		<path style="opacity:0.18;fill:#8C1438;" d="M393.629,263.082c-110.533-2.594-221.115,0.294-331.586,4.856
			c-2.471,0.102-4.411,2.156-4.374,4.628c0.038,2.525,2.111,4.539,4.636,4.492c1.229-0.023,2.705-0.05,4.373-0.081
			c8.682,16.419,9.194,36.949,1.326,53.774l-4.957,0.09c-2.483,0.045-4.465,2.086-4.438,4.569c0.027,2.503,2.083,4.507,4.586,4.471
			c112.416-1.624,224.824-3.238,336.644-4.047C408.481,312.354,406.934,285.316,393.629,263.082z"/>
		<g>
			<g>
				<g>
					<path style="fill:#FFFFFF;" d="M62.906,270.689c9.98,17.635,10.174,40.419,0.496,58.22l191.947-1.715l0.005-55.241
						L62.906,270.689z"/>
					<path style="fill:#FFE9BD;" d="M237.696,273.507c-0.423,17.804-0.845,35.607-1.268,53.411l0.42,0.441l18.501-0.165
						l0.005-55.241l-16.635-0.109L237.696,273.507z"/>
					<path style="opacity:0.18;fill:#8C1438;" d="M65.994,277.058c42.314,1.126,84.634,2.262,127.253,4.01
						c-38.285,19.295-80.933,29.857-123.795,30.697c-1.127,5.982-3.138,11.79-6.05,17.145l191.947-1.715l0.005-55.241
						l-192.448-1.264C64.071,272.747,65.096,274.877,65.994,277.058z"/>
				</g>
				<g>
					
						<path style="fill:none;stroke:#302D38;stroke-width:1.5;stroke-linecap:round;stroke-linejoin:round;stroke-miterlimit:10;" d="
						M67.993,284.436c56.538-2.373,113.076-4.746,169.613-7.12"/>
					
						<path style="fill:none;stroke:#302D38;stroke-width:1.5;stroke-linecap:round;stroke-linejoin:round;stroke-miterlimit:10;" d="
						M69.89,295.1c55.804-1.684,111.609-3.367,167.414-5.051"/>
					
						<path style="fill:none;stroke:#302D38;stroke-width:1.5;stroke-linecap:round;stroke-linejoin:round;stroke-miterlimit:10;" d="
						M70.176,300.505c55.622-2.428,111.294-3.684,166.969-3.767"/>
					
						<path style="fill:none;stroke:#302D38;stroke-width:1.5;stroke-linecap:round;stroke-linejoin:round;stroke-miterlimit:10;" d="
						M65.694,323.145c57.077-1.971,114.112-5.165,171.051-9.578"/>
				</g>
			</g>
			<g>
				<g>
					<path style="fill:#F8A500;" d="M59.516,335.833c112.428,0.408,224.846,0.826,336.662,2.038
						c9.066-23.321,8.007-50.383-4.894-72.854c-110.468-4.592-221.084-3.703-331.619-1.138c-2.472,0.057-4.449,2.076-4.457,4.549
						l0,0c-0.008,2.525,2.029,4.576,4.554,4.575c28.794-0.013,183.997-0.017,185.403,1.424c7.337,16.399,7.372,35.907,0.094,52.334
						l-185.727,0.031c-2.484,0-4.502,2.004-4.52,4.488l0,0C54.994,333.783,57.013,335.824,59.516,335.833z"/>
					<path style="fill:#FFBA30;" d="M331.004,337.257c10.423-23.092,11.617-50.213,3.261-74.131
						c-21.098-0.538-42.201-0.903-63.305-1.116c9.405,23.63,10.69,50.386,3.658,74.823
						C293.425,336.957,312.219,337.101,331.004,337.257z"/>
					<g>
						<defs>
							<path id="SVGID_00000023996395417292492370000011196610156934195901_" d="M59.516,335.833
								c112.428,0.408,224.846,0.826,336.662,2.038c9.066-23.321,8.007-50.383-4.894-72.854
								c-110.468-4.592-221.084-3.703-331.619-1.138c-2.472,0.057-4.449,2.076-4.457,4.549l0,0
								c-0.008,2.525,2.029,4.576,4.554,4.575c28.794-0.013,183.997-0.017,185.403,1.424c7.337,16.399,7.372,35.907,0.094,52.334
								l-185.727,0.031c-2.484,0-4.502,2.004-4.52,4.488l0,0C54.994,333.783,57.013,335.824,59.516,335.833z"/>
						</defs>
						<clipPath id="SVGID_00000062888006589503596020000014988740195680834470_">
							<use xlink:href="#SVGID_00000023996395417292492370000011196610156934195901_"  style="overflow:visible;"/>
						</clipPath>
						
							<path style="clip-path:url(#SVGID_00000062888006589503596020000014988740195680834470_);fill:none;stroke:#302D38;stroke-width:1.5;stroke-linecap:round;stroke-linejoin:round;stroke-miterlimit:10;" d="
							M256.926,260.314c10.047,24.742,10.768,53.143,1.987,78.362"/>
						
							<path style="clip-path:url(#SVGID_00000062888006589503596020000014988740195680834470_);fill:none;stroke:#302D38;stroke-width:1.5;stroke-linecap:round;stroke-linejoin:round;stroke-miterlimit:10;" d="
							M357.876,282.394c3.333,11.634,3.634,24.122,0.866,35.904c0,0,23.697,1.788,24.082,1.489
							c4.106-12.226,4.36-25.713,0.718-38.084L357.876,282.394z"/>
					</g>
				</g>
				<path style="opacity:0.18;fill:#8C1438;" d="M245.259,326.761l-185.727,0.031c-2.484,0-4.502,2.004-4.52,4.488
					c-0.018,2.503,2.001,4.544,4.504,4.553c112.428,0.408,224.846,0.826,336.662,2.038c5.603-14.412,7.333-30.253,4.797-45.556
					c-49.991,10.688-100.702,17.981-151.676,21.849C248.393,318.488,247.05,322.718,245.259,326.761z"/>
				<path style="opacity:0.3;fill:#FFFFFF;" d="M59.665,263.88c-2.001,0.046-3.658,1.386-4.229,3.203
					c112.521-3.115,225.139-2.699,337.635,1.242c-0.571-1.112-1.161-2.216-1.787-3.307C280.816,260.426,170.2,261.315,59.665,263.88
					z"/>
			</g>
		</g>
	</g>
	<g>
		<path style="opacity:0.18;fill:#8C1438;" d="M360.154,255.76c-0.562-0.013-1.168-0.026-1.814-0.04
			c-4.459-17.174-4.244-35.534,0.617-52.599l1.214,0.021c2.698,0.033,4.906-2.139,4.915-4.837c0.009-2.611-2.041-4.766-4.649-4.876
			c-91.747-3.891-187.515-4.443-280.789-2.238c-14.167,20.915-15.035,49.89-0.812,73.615c74.217-0.518,150.848-0.238,226.007,0.992
			c-0.591,3.01-1.559,5.946-2.901,8.705l11.841-4.862c0,0,5.607,7.514,6.588,8.96c1.888-3.953,3.409-8.16,4.329-12.457
			c11.784,0.22,23.524,0.464,35.203,0.733c3.209,0.074,5.812-2.573,5.683-5.78C365.465,258.162,363.09,255.825,360.154,255.76z"/>
		<g>
			<g>
				<g>
					<path style="fill:#FFFFFF;" d="M364.277,200.171c-5.51,18.401-5.566,38.399-0.157,56.83l-85.356,0.251l1.419-61.79
						L364.277,200.171z"/>
					<path style="fill:#DABFFF;" d="M290.558,255.147c-0.221-18.375-0.441-36.75-0.662-55.125c0,0,0.356-1.877,0.466-3.99
						l-10.179-0.57l-1.419,61.79l11.399-0.034L290.558,255.147z"/>
					<path style="opacity:0.18;fill:#8C1438;" d="M361.972,248.107c-12.201-2.338-24.331-5.501-35.253-11.366
						c-12.085-6.489-22.676-16.654-27.229-29.594c21.805-1.268,42.591-1.663,63.284-1.288c0.449-1.909,0.94-3.808,1.503-5.688
						l-84.094-4.709l-1.419,61.79l85.356-0.251C363.261,254.073,362.555,251.102,361.972,248.107z"/>
				</g>
				<g>
					
						<path style="fill:none;stroke:#302D38;stroke-width:1.5;stroke-linecap:round;stroke-linejoin:round;stroke-miterlimit:10;" d="
						M289.978,206.811c24.261-0.382,48.536,0.054,72.769,1.305"/>
					
						<path style="fill:none;stroke:#302D38;stroke-width:1.5;stroke-linecap:round;stroke-linejoin:round;stroke-miterlimit:10;" d="
						M290.06,213.69c24.141-1.004,48.319-1.13,72.47-0.38"/>
					
						<path style="fill:none;stroke:#302D38;stroke-width:1.5;stroke-linecap:round;stroke-linejoin:round;stroke-miterlimit:10;" d="
						M290.17,226.357c23.748-2.336,47.56-4.031,71.4-5.082"/>
					
						<line style="fill:none;stroke:#302D38;stroke-width:1.5;stroke-linecap:round;stroke-linejoin:round;stroke-miterlimit:10;" x1="290.425" y1="244.085" x2="361.481" y2="240.27"/>
					
						<line style="fill:none;stroke:#302D38;stroke-width:1.5;stroke-linecap:round;stroke-linejoin:round;stroke-miterlimit:10;" x1="290.487" y1="249.276" x2="362.748" y2="245.668"/>
				</g>
			</g>
			<g>
				<g>
					<path style="fill:#8229FF;" d="M369.843,197.213L369.843,197.213c0.008,2.698-2.185,4.886-4.883,4.87l-77.5-0.824
						c-8.848,16.089-10.125,36.14-3.388,53.22c1.526-0.732,63.3-0.06,81.226,0.221c2.937,0.046,5.328,2.366,5.466,5.3l0,0
						c0.151,3.206-2.435,5.871-5.643,5.818c-92.436-1.506-188.634-1.449-281.073-0.181c-14.382-23.629-13.709-52.609,0.317-73.619
						c93.257-2.832,189.026-2.924,280.798,0.35C367.77,192.461,369.834,194.602,369.843,197.213z"/>
					<path style="fill:#984FFF;" d="M267.926,190.153c-6.998-0.075-14.004-0.135-21.019-0.175
						c-9.187,23.824-8.768,51.212,1.125,74.75c5.742,0.016,11.481,0.037,17.217,0.064C256.161,240.9,257.15,213.332,267.926,190.153
						z"/>
					<g>
						<defs>
							<path id="SVGID_00000060735025002511140590000011765118711111813542_" d="M369.843,197.213L369.843,197.213
								c0.008,2.698-2.185,4.886-4.883,4.87l-77.5-0.824c-8.848,16.089-10.125,36.14-3.388,53.22
								c1.526-0.732,63.3-0.06,81.226,0.221c2.937,0.046,5.328,2.366,5.466,5.3l0,0c0.151,3.206-2.435,5.871-5.643,5.818
								c-92.436-1.506-188.634-1.449-281.073-0.181c-14.382-23.629-13.709-52.609,0.317-73.619
								c93.257-2.832,189.026-2.924,280.798,0.35C367.77,192.461,369.834,194.602,369.843,197.213z"/>
						</defs>
						<clipPath id="SVGID_00000069380874132103743460000013561168431534773919_">
							<use xlink:href="#SVGID_00000060735025002511140590000011765118711111813542_"  style="overflow:visible;"/>
						</clipPath>
						
							<path style="clip-path:url(#SVGID_00000069380874132103743460000013561168431534773919_);fill:none;stroke:#302D38;stroke-width:1.5;stroke-linecap:round;stroke-linejoin:round;stroke-miterlimit:10;" d="
							M97.828,267.106c-11.174-24.251-11.184-53.383-0.024-77.642"/>
					</g>
				</g>
				<path style="opacity:0.18;fill:#8C1438;" d="M365.12,265.818c3.209,0.052,5.795-2.612,5.643-5.818
					c-0.138-2.934-2.529-5.254-5.466-5.3c-17.926-0.281-79.699-0.953-81.226-0.221c-1.827-4.633-3.044-9.487-3.701-14.419
					c-69.05-1.898-138.037-6.075-206.811-12.531c-0.184,12.925,3.236,26.196,10.486,38.108
					C176.485,264.37,272.684,264.312,365.12,265.818z"/>
				<path style="opacity:0.3;fill:#FFFFFF;" d="M369.035,194.544c-0.837-1.265-2.25-2.118-3.874-2.176
					c-91.771-3.274-187.541-3.182-280.798-0.35c-0.731,1.095-1.417,2.217-2.076,3.354
					C177.836,192.39,273.47,192.113,369.035,194.544z"/>
			</g>
			<path style="fill:#1DACBB;" d="M302.666,211.224c-3.229,6.055-2.242,13.513-0.002,19.998c2.242,6.487,5.64,12.585,7.158,19.277
				c1.764,7.777,0.829,16.14-2.61,23.335l11.808-4.942c0,0,5.658,7.476,6.648,8.915c4.272-9.103,6.61-19.529,4.156-29.28
				c-1.642-6.529-5.304-12.34-7.954-18.528c-2.651-6.189-4.267-13.368-1.67-19.579L302.666,211.224z"/>
		</g>
	</g>
	<g>
		<path style="opacity:0.18;fill:#8C1438;" d="M224.232,118.039c0.452-1.992,0.942-3.975,1.502-5.939
			c3.302-11.58,9.637-23.203,20.484-28.432c-21.074,1.118-39.602,9.111-53.41,21.937c-2.307-11.089-3.922-22.554-1.945-33.703
			c-16.16,7.052-29.192,19.576-37.594,34.721c-15.281-13.052-37.075-18.272-56.562-13.191c4.03,14.098,9.46,27.398,16.969,38.891
			c-0.055,0.014-0.111,0.024-0.166,0.038c-12.877,3.4-23.916,13.145-28.885,25.502c10.762-0.859,21.861-0.349,31.899,3.622
			c5.769,2.282,11.152,5.844,15.326,10.404c-11.116,12.257-17.269,28.725-17.181,45.252c0.091,17.314,7.015,34.5,18.951,47.042
			l82.489,1.104c15.564-23.881,17.32-56.116,4.443-81.547c-2.895-5.717-6.616-11.228-11.682-15.075
			c3.174-2.268,6.121-4.914,8.837-7.687c6.551-6.691,12.204-14.277,19.291-20.398c7.087-6.122,16.109-10.794,23.999-8.359
			C250.763,123.564,237.622,118.196,224.232,118.039z"/>
		<g>
			<g>
				<g>
					<path style="fill:#158894;" d="M171.326,173.645c-4.077-13.076-0.566-28.038,8.252-38.519
						c8.816-10.482,22.499-16.446,36.193-16.678c13.695-0.232,27.251,5.043,37.81,13.768c-7.917-2.344-16.886,2.429-23.902,8.631
						c-7.017,6.201-12.583,13.851-19.058,20.616c-6.476,6.765-14.289,12.841-23.499,14.53L171.326,173.645z"/>
					<path style="fill:#137C87;" d="M184.048,175.537c6.777-24.876,26.781-45.758,51.274-53.747
						c-5.312-1.912-10.881-3.058-16.512-3.294c-9.365,2.026-18.175,7.193-24.792,14.136c-10.688,11.213-16.428,26.221-19.418,41.501
						L184.048,175.537z"/>
				</g>
				<path style="fill:none;stroke:#302D38;stroke-width:1.5;stroke-linecap:round;stroke-linejoin:round;stroke-miterlimit:10;" d="
					M222.477,134.017c1.289-1.581,2.577-3.161,3.866-4.742l2.503,6.081"/>
			</g>
			<g>
				<path style="fill:#158894;" d="M131.963,184.936c-3.449-10.231-12.429-17.959-22.513-21.816
					c-10.083-3.857-21.187-4.241-31.938-3.26c4.829-12.413,15.756-22.282,28.593-25.828c12.838-3.546,27.281-0.683,37.795,7.491
					c10.515,8.174,16.851,21.466,16.581,34.782C150.478,179.171,140.475,182.036,131.963,184.936z"/>
				<path style="fill:none;stroke:#302D38;stroke-width:1.5;stroke-linecap:round;stroke-linejoin:round;stroke-miterlimit:10;" d="
					M95.751,153.534c0.275-1.965,0.552-3.93,0.827-5.895l5.249,3.958"/>
				<path style="fill:none;stroke:#302D38;stroke-width:1.5;stroke-linecap:round;stroke-linejoin:round;stroke-miterlimit:10;" d="
					M99.856,141.04c0.086-2.328,0.173-4.655,0.261-6.983l5.975,3.474"/>
				<path style="fill:none;stroke:#302D38;stroke-width:1.5;stroke-linecap:round;stroke-linejoin:round;stroke-miterlimit:10;" d="
					M115.824,161.479c1.091-2.019,2.182-4.037,3.274-6.056l3.081,6.626"/>
			</g>
			<g>
				<g>
					<path style="fill:#1A9BA8;" d="M238.253,83.836c-10.787,5.352-16.989,17.046-20.16,28.663
						c-3.17,11.617-4.022,23.811-7.766,35.256c-3.745,11.445-11.269,22.638-22.732,26.325c0,0-28.149-1.727-27.605-1.97
						c-1.66-21.473,5.525-43.496,19.529-59.859C193.523,95.889,214.173,85.388,238.253,83.836z"/>
					<path style="fill:#1DACBB;" d="M182.675,122.576c-10.728,14.221-15.835,32.545-14.126,50.268
						c5.332,0.371,11.881,0.788,15.746,1.031c1.089-25.549,14.323-50.351,35.016-65.395c0.004-0.003,0.009-0.006,0.013-0.009
						c1.535-4.554,3.571-8.999,6.201-12.952C208.633,99.041,193.074,108.791,182.675,122.576z"/>
				</g>
				<path style="fill:none;stroke:#302D38;stroke-width:1.5;stroke-linecap:round;stroke-linejoin:round;stroke-miterlimit:10;" d="
					M194.006,104.633c0.689-2.099,1.379-4.197,2.068-6.295l4.868,3.813"/>
				<path style="fill:none;stroke:#302D38;stroke-width:1.5;stroke-linecap:round;stroke-linejoin:round;stroke-miterlimit:10;" d="
					M212.962,95.605c0.964-1.815,1.928-3.629,2.89-5.444l4.909,5.15"/>
				<path style="fill:none;stroke:#302D38;stroke-width:1.5;stroke-linecap:round;stroke-linejoin:round;stroke-miterlimit:10;" d="
					M195.326,139.561c0.056-2.415,0.113-4.83,0.168-7.245l5.809,3.531"/>
			</g>
			<g>
				<g>
					<path style="fill:#1A9BA8;" d="M88.862,95.297c21.127-5.766,45.128,0.61,60.608,16.1c15.48,15.49,21.842,39.495,16.064,60.618
						c0,0-26.614,1.893-26.993,3.005c-2.561-11.544-13.113-19.166-21.409-27.593C103.593,133.67,94.827,115.301,88.862,95.297z"/>
					<path style="fill:#1DACBB;" d="M138.541,175.019c0.14-0.411,3.857-0.927,8.488-1.416c0.437-25.085-8.128-50.288-23.938-69.791
						c-3.159-3.897-6.681-7.618-10.979-10.173c-4.833-0.563-9.723-0.58-14.549-0.016c9.752,7.19,17.435,17.171,21.827,28.467
						c3.842,9.879,5.151,20.717,3.861,31.234C129.966,159.673,136.585,166.201,138.541,175.019z"/>
				</g>
				<path style="fill:none;stroke:#302D38;stroke-width:1.5;stroke-linecap:round;stroke-linejoin:round;stroke-miterlimit:10;" d="
					M106.731,125.993c1.856-0.965,3.712-1.928,5.568-2.893l0.745,6.059"/>
				<path style="fill:none;stroke:#302D38;stroke-width:1.5;stroke-linecap:round;stroke-linejoin:round;stroke-miterlimit:10;" d="
					M106.731,108.171c0.912-2.413,1.825-4.826,2.738-7.238l4.938,6.89"/>
				<path style="fill:none;stroke:#302D38;stroke-width:1.5;stroke-linecap:round;stroke-linejoin:round;stroke-miterlimit:10;" d="
					M127.412,104.342c1.811-2.18,3.621-4.36,5.431-6.541l1.947,7.832"/>
			</g>
			<g>
				<g>
					<path style="fill:#1DACBB;" d="M138.299,172.508c-5.247-19.07-3.786-39.915,4.069-58.067
						c7.856-18.152,22.052-33.485,40.4-41.742c-1.859,11.229-0.087,22.737,2.365,33.852c2.452,11.114,5.595,22.14,6.515,33.485
						c0.921,11.345-0.574,23.284-6.743,32.851L138.299,172.508z"/>
					<path style="fill:#21C5D6;" d="M182.525,91.534c-0.449-4.029-0.643-8.07-0.455-12.093
						c-22.847,24.493-32.753,60.473-25.715,93.214l19.889,0.162c-2.929-13.282-5.768-26.683-5.839-40.275
						c-0.074-14.117,3.071-28.647,11.402-40.044C182.044,92.175,182.284,91.855,182.525,91.534z"/>
				</g>
				<path style="fill:none;stroke:#302D38;stroke-width:1.5;stroke-linecap:round;stroke-linejoin:round;stroke-miterlimit:10;" d="
					M134.082,154.175c0.697-2.022,1.395-4.045,2.092-6.068l5.992,4.568"/>
				<path style="fill:none;stroke:#302D38;stroke-width:1.5;stroke-linecap:round;stroke-linejoin:round;stroke-miterlimit:10;" d="
					M139.802,122.565c-0.597-2.241-0.835-4.576-0.702-6.891l7.984,1.174"/>
				
					<polyline style="fill:none;stroke:#302D38;stroke-width:1.5;stroke-linecap:round;stroke-linejoin:round;stroke-miterlimit:10;" points="
					162.693,151.988 165.287,145.458 170.074,151.202 				"/>
				<path style="fill:none;stroke:#302D38;stroke-width:1.5;stroke-linecap:round;stroke-linejoin:round;stroke-miterlimit:10;" d="
					M177.426,132.419c1.906-1.672,3.812-3.345,5.717-5.018l1.752,7.758"/>
				<path style="fill:none;stroke:#302D38;stroke-width:1.5;stroke-linecap:round;stroke-linejoin:round;stroke-miterlimit:10;" d="
					M167.996,112.623c2.245-1.035,4.491-2.07,6.735-3.105l-0.977,7.674"/>
				<path style="fill:none;stroke:#302D38;stroke-width:1.5;stroke-linecap:round;stroke-linejoin:round;stroke-miterlimit:10;" d="
					M155.828,97.617c-0.192-2.253-0.385-4.508-0.577-6.761l5.296,2.351"/>
			</g>
			<g>
				<g>
					<path style="fill:#FFFFFF;" d="M127.711,265.617c-12.078-12.405-19.197-29.512-19.484-46.823
						c-0.288-17.311,6.257-34.645,18.253-47.192c24.214-5.008,49.111-6.691,72.907-3.999c6.399,3.732,10.916,10.019,14.337,16.589
						c13.165,25.283,11.775,57.537-3.517,81.593L127.711,265.617z"/>
					<g>
						<defs>
							<path id="SVGID_00000027568536322376140740000012543447108145538720_" d="M127.711,265.617
								c-12.078-12.405-19.197-29.512-19.484-46.823c-0.288-17.311,6.257-34.645,18.253-47.192
								c24.214-5.008,49.111-6.691,72.907-3.999c6.399,3.732,10.916,10.019,14.337,16.589c13.165,25.283,11.775,57.537-3.517,81.593
								L127.711,265.617z"/>
						</defs>
						<clipPath id="SVGID_00000026881118360397122380000012107545041634381747_">
							<use xlink:href="#SVGID_00000027568536322376140740000012543447108145538720_"  style="overflow:visible;"/>
						</clipPath>
						
							<path style="clip-path:url(#SVGID_00000026881118360397122380000012107545041634381747_);fill:none;stroke:#302D38;stroke-width:1.5;stroke-linecap:round;stroke-linejoin:round;stroke-miterlimit:10;" d="
							M117.884,176.279c29.617,22.619,69.365,31.408,105.758,23.383"/>
						
							<path style="clip-path:url(#SVGID_00000026881118360397122380000012107545041634381747_);fill:none;stroke:#302D38;stroke-width:1.5;stroke-linecap:round;stroke-linejoin:round;stroke-miterlimit:10;" d="
							M106.066,225.441c40.823,6.025,83.485-1.122,120.117-20.122"/>
						
							<path style="clip-path:url(#SVGID_00000026881118360397122380000012107545041634381747_);fill:none;stroke:#302D38;stroke-width:1.5;stroke-linecap:round;stroke-linejoin:round;stroke-miterlimit:10;" d="
							M109.903,243.226c40.704-1.265,81.055-12.673,116.396-32.911"/>
					</g>
				</g>
				<path style="opacity:0.18;fill:#8C1438;" d="M217.541,192.801c-23.376,32.519-61.282,54.284-101.065,57.405
					c3.011,5.624,6.782,10.839,11.234,15.411l82.496,0.167C223.811,244.383,226.402,216.499,217.541,192.801z"/>
			</g>
		</g>
	</g>
	<g>
		<path style="fill:#F96629;" d="M474.752,375.403c-1.503-1.076-3.988-0.008-4.241,1.823c-0.254,1.829,1.849,3.533,3.587,2.905
			C475.835,379.503,476.513,376.664,474.752,375.403z"/>
		<path style="fill:#F96629;" d="M472.789,247.723c-1.189-1.325-3.473-1.455-4.805-0.273c-1.33,1.182-1.472,3.466-0.295,4.803
			c1.175,1.337,3.458,1.49,4.8,0.32C473.833,251.403,474.022,249.097,472.789,247.723z"/>
		<path style="fill:#F96629;" d="M422.509,119.005c1.657,1.202,2.087,3.792,0.909,5.465c-1.179,1.674-3.762,2.142-5.453,0.986
			c-1.69-1.155-2.194-3.731-1.062-5.438C418.035,118.312,420.673,117.673,422.509,119.005z"/>
		<path style="fill:#FF8242;" d="M59.351,181.75c1.657,1.202,2.087,3.792,0.909,5.465c-1.179,1.674-3.762,2.142-5.453,0.986
			c-1.69-1.155-2.194-3.731-1.062-5.438C54.877,181.056,57.515,180.417,59.351,181.75z"/>
		<path style="fill:#F96629;" d="M349.453,66.278c-1.111-0.761-2.807-0.465-3.595,0.627c-0.789,1.091-0.535,2.794,0.537,3.609
			c1.072,0.815,2.78,0.605,3.621-0.447C350.857,69.017,350.779,67.186,349.453,66.278z"/>
		<path style="fill:#F96629;" d="M416.754,103.745c-1.111-0.761-2.807-0.465-3.595,0.627c-0.788,1.091-0.535,2.794,0.537,3.609
			c1.072,0.815,2.78,0.605,3.621-0.447C418.158,106.483,418.08,104.653,416.754,103.745z"/>
		<path style="fill:#F96629;" d="M45.726,401.767c-1.111-0.761-2.807-0.464-3.596,0.627c-0.788,1.091-0.535,2.794,0.537,3.609
			c1.072,0.815,2.78,0.605,3.621-0.447C47.13,404.506,47.052,402.675,45.726,401.767z"/>
		<path style="fill:#F96629;" d="M464.957,400.708c-1.111-0.761-2.807-0.465-3.595,0.627c-0.789,1.091-0.535,2.794,0.537,3.609
			c1.072,0.815,2.78,0.605,3.621-0.447C466.362,403.446,466.284,401.616,464.957,400.708z"/>
		<path style="fill:#FF8242;" d="M64.983,197.958c-1.111-0.761-2.807-0.465-3.595,0.627c-0.789,1.091-0.535,2.794,0.537,3.609
			c1.072,0.815,2.78,0.605,3.621-0.447C66.388,200.697,66.31,198.867,64.983,197.958z"/>
		<path style="fill:#FF8242;" d="M144.546,80.287c-1.111-0.761-2.807-0.465-3.596,0.627c-0.788,1.092-0.535,2.794,0.537,3.609
			c1.072,0.815,2.78,0.605,3.621-0.447C145.95,83.026,145.872,81.196,144.546,80.287z"/>
		<path style="fill:#F96629;" d="M85.997,53.68c-1.111-0.704-2.755-0.37-3.502,0.713c-0.748,1.083-0.478,2.738,0.575,3.527
			c1.053,0.791,2.717,0.586,3.547-0.435C87.447,56.464,87.451,54.601,85.997,53.68z"/>
		<path style="fill:#F96629;" d="M28.212,127.099c-1.111-0.704-2.755-0.37-3.502,0.713c-0.748,1.083-0.478,2.738,0.575,3.527
			c1.053,0.79,2.717,0.586,3.547-0.435C29.662,129.883,29.666,128.02,28.212,127.099z"/>
		<path style="fill:#F96629;" d="M36.303,342.27c-2.729-2.545-7.507-2.42-10.099,0.263c-2.593,2.684-2.552,7.463,0.085,10.103
			c2.638,2.639,7.417,2.682,10.102,0.092C39.077,350.137,39.403,345.161,36.303,342.27z"/>
		<path style="fill:#FF8242;" d="M320.611,161.057c-2.729-2.545-7.507-2.42-10.099,0.263c-2.593,2.684-2.552,7.463,0.085,10.103
			c2.638,2.639,7.417,2.682,10.102,0.092C323.385,168.923,323.711,163.948,320.611,161.057z"/>
		<path style="fill:none;stroke:#302D38;stroke-width:1.5;stroke-linecap:round;stroke-linejoin:round;stroke-miterlimit:10;" d="
			M435.354,311.953c0,0.891-0.723,1.614-1.614,1.614c-0.891,0-1.614-0.723-1.614-1.614c0-0.892,0.723-1.614,1.614-1.614
			C434.631,310.338,435.354,311.061,435.354,311.953z"/>
		<path style="fill:none;stroke:#302D38;stroke-width:1.5;stroke-linecap:round;stroke-linejoin:round;stroke-miterlimit:10;" d="
			M47.231,234.251c0,0.891-0.723,1.614-1.614,1.614c-0.891,0-1.614-0.723-1.614-1.614c0-0.891,0.723-1.614,1.614-1.614
			C46.508,232.637,47.231,233.36,47.231,234.251z"/>
		
			<circle style="fill:none;stroke:#302D38;stroke-width:1.5;stroke-linecap:round;stroke-linejoin:round;stroke-miterlimit:10;" cx="26.839" cy="385.953" r="1.614"/>
		<path style="fill:none;stroke:#302D38;stroke-width:1.5;stroke-linecap:round;stroke-linejoin:round;stroke-miterlimit:10;" d="
			M40.132,380.335c0,0.892-0.723,1.614-1.614,1.614c-0.892,0-1.614-0.723-1.614-1.614c0-0.891,0.723-1.614,1.614-1.614
			C39.409,378.721,40.132,379.444,40.132,380.335z"/>
		<path style="fill:none;stroke:#302D38;stroke-width:1.5;stroke-linecap:round;stroke-linejoin:round;stroke-miterlimit:10;" d="
			M394.685,71.012c0,0.891-0.723,1.614-1.614,1.614c-0.891,0-1.614-0.723-1.614-1.614c0-0.891,0.723-1.614,1.614-1.614
			C393.962,69.398,394.685,70.121,394.685,71.012z"/>
		<path style="fill:none;stroke:#302D38;stroke-width:1.5;stroke-linecap:round;stroke-linejoin:round;stroke-miterlimit:10;" d="
			M456.911,164.086c0,0.891-0.723,1.614-1.614,1.614c-0.891,0-1.614-0.723-1.614-1.614c0-0.892,0.723-1.614,1.614-1.614
			C456.188,162.472,456.911,163.194,456.911,164.086z"/>
		<path style="fill:none;stroke:#302D38;stroke-width:1.5;stroke-linecap:round;stroke-linejoin:round;stroke-miterlimit:10;" d="
			M389.248,108.479c0,1.783-1.445,3.228-3.228,3.228c-1.783,0-3.228-1.445-3.228-3.228s1.445-3.228,3.228-3.228
			C387.802,105.251,389.248,106.697,389.248,108.479z"/>
		
			<circle style="fill:none;stroke:#302D38;stroke-width:1.5;stroke-linecap:round;stroke-linejoin:round;stroke-miterlimit:10;" cx="466.889" cy="423.329" r="3.228"/>
		<path style="fill:none;stroke:#302D38;stroke-width:1.5;stroke-linecap:round;stroke-linejoin:round;stroke-miterlimit:10;" d="
			M60.261,86.924c0,1.783-1.445,3.228-3.228,3.228c-1.783,0-3.228-1.445-3.228-3.228s1.445-3.228,3.228-3.228
			C58.816,83.696,60.261,85.141,60.261,86.924z"/>
	</g>
</g>
</svg>
