<?xml version="1.0" standalone="no"?>
<!DOCTYPE svg PUBLIC "-//W3C//DTD SVG 20010904//EN"
 "http://www.w3.org/TR/2001/REC-SVG-20010904/DTD/svg10.dtd">
<svg version="1.0" xmlns="http://www.w3.org/2000/svg"
 width="474.000000pt" height="474.000000pt" viewBox="0 0 474.000000 474.000000"
 preserveAspectRatio="xMidYMid meet">

<g transform="translate(0.000000,474.000000) scale(0.100000,-0.100000)"
fill="#000000" stroke="none">
<path d="M1471 3760 c-263 -56 -488 -236 -594 -475 -75 -173 -95 -410 -50
-610 110 -491 608 -1063 1382 -1587 80 -54 152 -98 161 -98 9 0 74 38 145 85
481 322 911 724 1140 1065 199 297 285 553 271 805 -15 271 -91 442 -269 611
-92 88 -219 160 -332 190 -141 37 -332 26 -468 -27 -192 -75 -402 -292 -471
-486 -12 -33 -15 -35 -21 -18 -47 129 -140 263 -249 356 -97 84 -166 124 -273
162 -75 26 -105 30 -208 33 -66 2 -140 -1 -164 -6z"/>
</g>
</svg>
